<svg width="320" height="320" viewBox="0 0 320 320" fill="none" xmlns="http://www.w3.org/2000/svg">
<path d="M61.6875 259.514V264.328H97.7202V259.514H61.6875Z" fill="#E0E0E0"/>
<path d="M66.5938 259.714C66.7185 259.714 66.8203 260.724 66.8203 261.969C66.8203 263.214 66.7185 264.224 66.5938 264.224C66.4683 264.224 66.3672 263.214 66.3672 261.969C66.3672 260.724 66.469 259.714 66.5938 259.714Z" fill="#FAFAFA"/>
<path d="M65.8125 259.615C65.9379 259.615 66.0391 260.625 66.0391 261.871C66.0391 263.116 65.9379 264.126 65.8125 264.126C65.6877 264.126 65.5859 263.116 65.5859 261.871C65.5859 260.625 65.6877 259.615 65.8125 259.615Z" fill="#FAFAFA"/>
<path d="M94.9336 259.714C95.059 259.714 95.1602 260.724 95.1602 261.969C95.1602 263.214 95.059 264.224 94.9336 264.224C94.8088 264.224 94.707 263.214 94.707 261.969C94.7077 260.724 94.8088 259.714 94.9336 259.714Z" fill="#FAFAFA"/>
<path d="M94.1484 259.615C94.2732 259.615 94.375 260.625 94.375 261.871C94.375 263.116 94.2732 264.126 94.1484 264.126C94.0236 264.126 93.9219 263.116 93.9219 261.871C93.9219 260.625 94.023 259.615 94.1484 259.615Z" fill="#FAFAFA"/>
<path d="M89.4417 262.066C89.4417 262.192 85.3144 262.293 80.2251 262.293C75.1339 262.293 71.0078 262.191 71.0078 262.066C71.0078 261.942 75.1339 261.84 80.2251 261.84C85.3144 261.84 89.4417 261.942 89.4417 262.066Z" fill="#FAFAFA"/>
<path d="M61.5312 281.188V290.815H97.5639V281.188H61.5312Z" fill="#E0E0E0"/>
<path d="M98.0256 288.107C98.0288 288.114 97.9628 288.152 97.8297 288.219C97.6979 288.288 97.4969 288.381 97.2294 288.494C96.6937 288.713 95.8854 289.023 94.7865 289.193C93.7062 289.346 92.2566 289.39 90.8224 288.63C90.1184 288.254 89.4489 287.682 88.9395 286.924C88.4416 286.167 88.1216 285.179 88.2841 284.151C88.3705 283.639 88.5843 283.134 88.9465 282.717C89.2985 282.299 89.8636 281.991 90.4659 282.027C91.0694 282.054 91.6147 282.4 91.9929 282.851C92.3744 283.303 92.6361 283.881 92.6899 284.493C92.8326 285.714 92.3187 286.98 91.4476 287.905C90.5907 288.864 89.3094 289.448 87.9852 289.598C86.6521 289.756 85.2736 289.545 83.9654 289.099C82.6579 288.647 81.3657 287.914 80.4537 286.738C80.0064 286.154 79.6832 285.429 79.6352 284.66C79.5686 283.893 79.8131 283.069 80.4025 282.497C80.6956 282.212 81.1052 282.021 81.5296 282.003C81.9545 281.983 82.3648 282.121 82.7078 282.335C83.4028 282.766 83.847 283.504 84.0339 284.277C84.3724 285.851 83.7497 287.491 82.6131 288.518C81.4732 289.554 79.9808 290.015 78.5561 290.169C77.1219 290.313 75.6793 290.206 74.3507 289.755C73.0272 289.314 71.8368 288.443 71.1513 287.268C70.4544 286.119 70.2259 284.664 70.7507 283.443C70.9971 282.838 71.5539 282.302 72.2208 282.199C72.8704 282.078 73.5347 282.258 74.0358 282.637C75.0528 283.444 75.2224 284.828 74.894 285.881C74.5606 286.964 73.8323 287.794 73.0777 288.439C71.5372 289.739 69.7139 290.302 68.1363 290.358C66.542 290.414 65.2019 289.975 64.2214 289.469C63.2339 288.955 62.5836 288.372 62.1798 287.956C61.9814 287.743 61.8361 287.575 61.7484 287.455C61.6582 287.337 61.6153 287.274 61.6217 287.269C61.6678 287.206 62.343 288.32 64.3008 289.311C65.2723 289.783 66.5849 290.183 68.1254 290.105C69.6512 290.027 71.4054 289.458 72.8697 288.195C73.5897 287.568 74.2668 286.768 74.5593 285.781C74.8537 284.827 74.6624 283.591 73.8099 282.936C73.3932 282.622 72.8204 282.475 72.295 282.579C71.7606 282.668 71.3369 283.074 71.1168 283.602C70.6624 284.671 70.8614 285.996 71.5104 287.052C72.1472 288.132 73.239 288.929 74.4921 289.344C75.744 289.766 77.1366 289.868 78.5094 289.726C79.8732 289.577 81.2723 289.133 82.3104 288.183C83.335 287.264 83.8944 285.756 83.5929 284.378C83.4297 283.704 83.0432 283.072 82.4691 282.718C81.9065 282.345 81.1712 282.357 80.7123 282.825C80.247 283.274 80.0217 283.972 80.0832 284.629C80.1241 285.298 80.4025 285.936 80.8089 286.47C81.6352 287.544 82.8614 288.258 84.1062 288.688C85.3651 289.122 86.6835 289.326 87.9372 289.182C89.1884 289.044 90.359 288.515 91.1584 287.632C91.9705 286.78 92.4396 285.623 92.3187 284.533C92.231 283.474 91.4233 282.441 90.4499 282.376C89.9699 282.344 89.5104 282.58 89.1993 282.939C88.8825 283.296 88.6822 283.75 88.6022 284.204C88.4454 285.133 88.7238 286.049 89.1833 286.766C89.6524 287.485 90.2822 288.04 90.9465 288.408C92.2912 289.15 93.7043 289.145 94.7648 289.018C95.8457 288.879 96.6566 288.599 97.1987 288.409C97.7388 288.211 98.0179 288.09 98.0256 288.107Z" fill="#FAFAFA"/>
<path d="M64.75 264.468V281.171H97.5647V264.468H64.75Z" fill="#EBEBEB"/>
<path d="M70.2031 265.041C70.3286 265.041 70.4297 268.661 70.4297 273.125C70.4297 277.591 70.3286 281.21 70.2031 281.21C70.0777 281.21 69.9766 277.591 69.9766 273.125C69.9766 268.661 70.0777 265.041 70.2031 265.041Z" fill="#E0E0E0"/>
<path d="M72.6875 264.833C72.8129 264.833 72.9141 268.407 72.9141 272.813C72.9141 277.221 72.8123 280.794 72.6875 280.794C72.5627 280.794 72.4609 277.221 72.4609 272.813C72.4609 268.407 72.5627 264.833 72.6875 264.833Z" fill="#E0E0E0"/>
<path d="M93.8555 264.297C93.9809 264.297 94.082 268.06 94.082 272.701C94.082 277.344 93.9809 281.106 93.8555 281.106C93.7307 281.106 93.6289 277.343 93.6289 272.701C93.6289 268.06 93.7307 264.297 93.8555 264.297Z" fill="#E0E0E0"/>
<path d="M90.9297 264.522C91.0545 264.522 91.1562 268.188 91.1562 272.71C91.1562 277.233 91.0545 280.898 90.9297 280.898C90.8049 280.898 90.7031 277.233 90.7031 272.71C90.7031 268.189 90.8042 264.522 90.9297 264.522Z" fill="#E0E0E0"/>
<path d="M267.568 228.004C270.969 226.249 274.975 226.02 278.752 226.644C280.78 226.98 282.896 227.587 284.276 229.111C285.657 230.635 285.918 233.317 284.333 234.626C283.389 235.406 282.073 235.524 280.85 235.51C277.893 235.476 274.613 234.955 272.251 236.734C270.903 237.749 270.007 239.436 268.395 239.935C266.819 240.423 265.04 239.494 264.204 238.071C263.369 236.648 263.341 234.87 263.73 233.266C263.73 233.266 264.141 229.771 267.568 228.004Z" fill="#EBEBEB"/>
<path d="M259.776 212.959C261.856 215.93 265.899 214.946 267.774 213.133C269.648 211.319 270.441 208.691 271.162 206.185C272.81 200.458 274.471 194.451 273.246 188.62C272.88 186.876 272.227 185.137 271.002 183.844C269.778 182.55 267.893 181.781 266.171 182.236C264.133 182.775 262.866 184.771 261.95 186.671C259.259 192.254 257.834 198.442 257.813 204.639C257.802 207.534 258.144 210.569 259.776 212.959Z" fill="#EBEBEB"/>
<path d="M254.062 217.222C256.321 214.542 256.749 210.632 255.744 207.275C254.739 203.916 252.468 201.06 249.852 198.728C246.784 195.994 243.178 193.866 239.301 192.503C237.775 191.966 236.166 191.543 234.556 191.697C232.946 191.851 231.325 192.674 230.574 194.106C229.464 196.224 230.528 198.792 231.68 200.888C233.709 204.58 236.028 208.112 238.61 211.44C240.687 214.118 243.066 216.759 246.232 217.97C249.397 219.18 252.685 219.038 254.363 216.842" fill="#EBEBEB"/>
<path d="M259.632 257.774C259.671 257.776 259.734 257.295 259.82 256.424C259.915 255.442 260.036 254.208 260.178 252.74C260.35 251.19 260.576 249.345 261.007 247.336C261.437 245.332 262.109 243.161 262.971 240.958C263.865 238.768 264.955 236.779 266.228 235.187C267.493 233.588 268.963 232.431 270.345 231.764C271.723 231.083 272.959 230.808 273.813 230.685C274.674 230.596 275.157 230.528 275.157 230.49C275.158 230.452 274.674 230.445 273.789 230.469C272.912 230.527 271.626 230.749 270.173 231.41C268.717 232.056 267.156 233.231 265.83 234.863C264.493 236.487 263.364 238.521 262.454 240.75C261.576 242.991 260.914 245.185 260.504 247.232C260.095 249.277 259.908 251.142 259.786 252.704C259.669 254.269 259.625 255.536 259.604 256.411C259.584 257.287 259.594 257.772 259.632 257.774Z" fill="#E0E0E0"/>
<path d="M259.885 254.939C259.905 254.939 259.917 254.722 259.922 254.313C259.921 253.842 259.919 253.249 259.917 252.521C259.913 250.967 259.914 248.717 259.997 245.94C260.135 240.384 260.613 234.404 261.537 225.975C262.412 218.048 263.587 208.823 264.826 202.825C265.092 201.462 265.359 200.233 265.612 199.159C265.852 198.081 266.057 197.153 266.255 196.401C266.425 195.694 266.563 195.117 266.673 194.66C266.763 194.26 266.801 194.047 266.783 194.042C266.764 194.036 266.69 194.239 266.565 194.63C266.429 195.08 266.257 195.649 266.045 196.346C265.814 197.091 265.578 198.013 265.308 199.087C265.027 200.157 264.732 201.382 264.44 202.744C263.214 208.178 261.916 215.774 260.983 224.224C260.057 232.671 259.64 240.363 259.603 245.933C259.57 248.717 259.629 250.972 259.701 252.527C259.745 253.255 259.781 253.848 259.81 254.317C259.841 254.726 259.866 254.941 259.885 254.939Z" fill="#E0E0E0"/>
<path d="M259.926 240.104C259.965 240.102 259.958 239.437 259.913 238.232C259.844 237.03 259.679 235.292 259.34 233.163C258.981 231.039 258.479 228.517 257.692 225.777C257.35 224.524 256.547 221.522 254.603 217.037C252.041 210.959 248.561 205.991 245.532 202.913C244.822 202.097 244.031 201.507 243.398 200.93C243.071 200.653 242.781 200.377 242.487 200.159C242.191 199.954 241.915 199.764 241.66 199.588C240.663 198.906 240.105 198.547 240.085 198.579C239.995 198.701 242.317 200.067 245.248 203.186C248.168 206.298 251.551 211.233 254.092 217.259C255.509 220.527 256.497 223.443 257.199 225.918C258.009 228.632 258.547 231.128 258.953 233.231C259.34 235.338 259.563 237.058 259.698 238.25C259.807 239.444 259.887 240.106 259.926 240.104Z" fill="#E0E0E0"/>
<path d="M244.594 264.02L246.08 284.385H272.243L273.73 264.02H244.594Z" fill="#EBEBEB"/>
<path d="M276.851 255.992H242.066V264.019H276.851V255.992Z" fill="#EBEBEB"/>
<path d="M242.066 283.605V285.831H243.701H276.276V283.605H242.066Z" fill="#E0E0E0"/>
<path d="M245.301 289.5L243.699 285.584H275.028L273.16 289.5H245.301Z" fill="#E0E0E0"/>
<path d="M273.245 270.676C273.25 270.681 273.209 270.744 273.122 270.862C273.019 271 272.89 271.171 272.731 271.381C272.359 271.856 271.849 272.51 271.208 273.332L271.14 273.419L271.074 273.328C270.116 272.003 268.836 270.233 267.329 268.149H267.545C266.431 269.726 265.19 271.483 263.858 273.369L263.743 273.533L263.613 273.378C262.253 271.76 260.775 270.002 259.241 268.176L259.494 268.173C259.417 268.269 259.335 268.372 259.253 268.475C257.897 270.175 256.585 271.821 255.344 273.376L255.213 273.54L255.093 273.369C253.766 271.492 252.526 269.737 251.405 268.151L251.619 268.161C249.801 270.232 248.26 271.988 247.076 273.336L246.996 273.428L246.934 273.325C246.336 272.318 245.858 271.517 245.512 270.935C245.364 270.676 245.243 270.466 245.147 270.299C245.067 270.153 245.029 270.076 245.036 270.071C245.043 270.067 245.095 270.136 245.188 270.273C245.295 270.434 245.428 270.636 245.592 270.885C245.956 271.456 246.457 272.244 247.085 273.232L246.943 273.22C248.107 271.856 249.624 270.078 251.413 267.982L251.526 267.849L251.627 267.992C252.758 269.571 254.009 271.317 255.349 273.187L255.099 273.18C256.337 271.621 257.646 269.974 258.999 268.272C259.081 268.168 259.163 268.065 259.24 267.97L259.364 267.813L259.492 267.966C261.021 269.795 262.495 271.556 263.851 273.179L263.607 273.188C264.952 271.312 266.205 269.564 267.33 267.995L267.439 267.842L267.545 267.995C269.021 270.101 270.273 271.89 271.211 273.23L271.078 273.226C271.746 272.425 272.276 271.789 272.663 271.325C272.835 271.126 272.975 270.964 273.087 270.834C273.185 270.725 273.238 270.67 273.245 270.676Z" fill="#F5F5F5"/>
<path d="M274.094 263.885C274.094 263.975 267.539 264.048 259.454 264.048C251.367 264.048 244.812 263.975 244.812 263.885C244.812 263.796 251.367 263.723 259.454 263.723C267.538 263.723 274.094 263.796 274.094 263.885Z" fill="#F5F5F5"/>
<path d="M124.934 51.739C124.931 51.7447 124.88 51.7287 124.784 51.6929C124.669 51.6475 124.53 51.5931 124.361 51.5265C123.963 51.3614 123.424 51.1367 122.745 50.8545C121.319 50.2433 119.305 49.3819 116.83 48.322C111.824 46.1409 104.957 43.1489 97.37 39.8439C97.1389 39.7428 96.9085 39.6417 96.6954 39.5483L96.8356 39.5489C89.377 42.7387 82.6577 45.6116 77.7674 47.7025C75.3514 48.7175 73.3885 49.5425 71.9978 50.1268C71.3367 50.3969 70.8119 50.6107 70.4247 50.7687C70.0637 50.9121 69.8717 50.9819 69.8673 50.9703C69.8628 50.9595 70.0452 50.8679 70.3972 50.7041C70.7786 50.5313 71.2938 50.2971 71.9447 50.002C73.3252 49.3934 75.2727 48.5339 77.6708 47.4759C82.5501 45.3601 89.2548 42.4526 96.6973 39.2251L96.7677 39.1943L96.8381 39.2251C97.0513 39.3185 97.2817 39.4196 97.5127 39.5207C105.083 42.8622 111.936 45.8875 116.932 48.0929C119.389 49.1956 121.386 50.0923 122.802 50.7284C123.47 51.0369 124 51.2807 124.391 51.4612C124.555 51.5406 124.69 51.6059 124.801 51.6603C124.891 51.707 124.936 51.7339 124.934 51.739Z" fill="#E0E0E0"/>
<path d="M155.29 48.9443H30.3008V142.53H155.29V48.9443Z" fill="#E0E0E0"/>
<path d="M151.391 53.2959H34.6719V138.684H151.391V53.2959Z" fill="#FAFAFA"/>
<path d="M60.4531 90.6025C60.4531 90.6025 60.5747 104.937 61.3037 109.31L79.2819 108.459C79.2819 108.459 77.703 94.3683 78.3104 90.6025H60.4531Z" fill="#E0E0E0"/>
<path d="M69.3076 92.6296C69.3076 92.6277 69.33 92.6251 69.3735 92.6226C69.4241 92.6207 69.4881 92.6181 69.5674 92.6149C69.7383 92.6027 69.9911 92.6149 70.3156 92.652C70.6375 92.7032 71.0337 92.7903 71.4586 92.9919C71.8823 93.1928 72.3207 93.5205 72.7028 93.9762C73.0708 94.4395 73.4081 95.0149 73.5649 95.7074C73.7127 96.4005 73.6378 97.1787 73.3761 97.9288C73.2487 98.3058 73.0753 98.6763 72.8711 99.0392C72.6682 99.4015 72.4647 99.7656 72.2951 100.16C71.9559 100.945 71.6865 101.809 71.5681 102.712L71.5604 102.771L71.5022 102.772C70.9345 102.781 70.3348 102.791 69.7268 102.801C69.0887 102.811 68.4602 102.821 67.865 102.83L67.7991 102.831L67.7966 102.764C67.7658 101.86 67.3594 101.036 66.9332 100.307C66.7175 99.9384 66.4814 99.5935 66.2599 99.244C66.0436 98.901 65.8004 98.5727 65.6282 98.2143C65.2737 97.4987 65.2129 96.7071 65.3466 96.0248C65.4753 95.3413 65.7018 94.7211 66.0404 94.2335C66.377 93.7451 66.8058 93.4053 67.2103 93.18C67.6174 92.9535 68.0001 92.8306 68.3143 92.7531C68.6298 92.677 68.8794 92.6469 69.0484 92.6335C69.1329 92.629 69.1975 92.6251 69.241 92.6264C69.2852 92.6251 69.3076 92.6277 69.3076 92.6296C69.3076 92.6322 69.2852 92.6335 69.2423 92.6379C69.1924 92.6431 69.1297 92.6495 69.0516 92.6578C68.8846 92.6789 68.6375 92.7167 68.3271 92.7999C68.018 92.8837 67.6423 93.0117 67.2462 93.2408C66.8519 93.468 66.4378 93.8053 66.1153 94.284C65.7921 94.7595 65.5738 95.372 65.4529 96.0421C65.3274 96.7109 65.3914 97.4712 65.737 98.1611C65.9054 98.5087 66.1434 98.8274 66.3668 99.1775C66.5863 99.5211 66.8263 99.8699 67.0452 100.24C67.4772 100.977 67.8977 101.812 67.9322 102.761L67.8638 102.696C68.4596 102.686 69.0881 102.676 69.7255 102.665C70.3335 102.656 70.9332 102.647 71.5009 102.638L71.435 102.699C71.5578 101.771 71.8311 100.905 72.1774 100.109C72.3489 99.7106 72.5601 99.3362 72.7623 98.9778C72.9646 98.6213 73.1367 98.2578 73.2628 97.8898C73.5226 97.1563 73.5988 96.4011 73.4606 95.7298C73.3153 95.0616 72.9876 94.4882 72.633 94.0338C72.2644 93.5845 71.8401 93.2594 71.4279 93.0565C71.0145 92.8523 70.626 92.7595 70.3086 92.7013C69.9886 92.6571 69.7377 92.6373 69.5674 92.6411C69.4881 92.6392 69.4247 92.6373 69.3742 92.636C69.33 92.6335 69.3076 92.6315 69.3076 92.6296Z" fill="white"/>
<path d="M70.2312 102.616C70.2312 102.616 70.2268 102.597 70.2204 102.559C70.214 102.52 70.205 102.464 70.1928 102.393C70.1698 102.244 70.1372 102.028 70.0949 101.751C70.0143 101.193 69.8946 100.385 69.814 99.3799C69.7948 99.1284 69.7775 98.8647 69.7672 98.5895C69.7583 98.3143 69.7461 98.0276 69.7621 97.73C69.7788 97.4337 69.8274 97.1214 69.9644 96.8308C70.102 96.5447 70.3311 96.2753 70.6498 96.1441C70.966 96.0078 71.3685 96.0788 71.6284 96.3303C71.7564 96.4564 71.8421 96.6362 71.8383 96.8225C71.8376 97.0081 71.766 97.1892 71.6546 97.3377C71.5439 97.4887 71.3896 97.6046 71.222 97.6871C71.0536 97.7716 70.8719 97.8241 70.6876 97.8644C70.3189 97.9418 69.9388 97.9847 69.5528 97.9962C69.1669 98.0052 68.7848 97.9982 68.4111 97.9412C68.2248 97.9105 68.0412 97.8625 67.8703 97.785C67.6988 97.7082 67.5432 97.5988 67.4172 97.4631C67.2917 97.3274 67.1957 97.1623 67.156 96.9825C67.1144 96.8026 67.142 96.6119 67.22 96.45C67.2975 96.2887 67.4287 96.1498 67.5957 96.0839C67.7628 96.0161 67.9522 96.0353 68.1071 96.1076C68.2639 96.1799 68.3932 96.2964 68.4885 96.4321C68.5845 96.5697 68.6415 96.7252 68.6792 96.8801C68.7528 97.1924 68.7509 97.5022 68.7701 97.7972C68.8008 98.3892 68.8296 98.9402 68.8559 99.4439C68.9064 100.449 68.9474 101.263 68.9762 101.828C68.989 102.108 68.9992 102.326 69.0063 102.476C69.0088 102.549 69.0108 102.605 69.0127 102.645C69.014 102.683 69.0133 102.703 69.0133 102.703C69.0133 102.703 69.0101 102.684 69.0076 102.646C69.0044 102.606 69.0005 102.55 68.9954 102.478C68.9858 102.327 68.9724 102.109 68.9551 101.83C68.9224 101.265 68.8751 100.451 68.8168 99.4465C68.7887 98.9428 68.7573 98.3918 68.724 97.8004C68.7042 97.5054 68.7042 97.1962 68.6319 96.8922C68.5948 96.7418 68.5384 96.5914 68.4476 96.4622C68.3567 96.3329 68.2325 96.2228 68.086 96.1556C67.9407 96.0884 67.7666 96.0718 67.6149 96.1338C67.4626 96.194 67.3404 96.3226 67.268 96.4743C67.1951 96.626 67.1695 96.8039 67.2085 96.9716C67.2456 97.1406 67.3365 97.2974 67.4568 97.4273C67.6988 97.6922 68.0552 97.8311 68.42 97.8881C68.7874 97.9438 69.1688 97.9508 69.5509 97.9425C69.9336 97.931 70.3112 97.8887 70.6754 97.8119C70.8565 97.7722 71.0344 97.7204 71.197 97.6398C71.3596 97.5598 71.5055 97.4497 71.6104 97.307C71.716 97.1662 71.7832 96.9959 71.7839 96.8244C71.7877 96.6522 71.7096 96.4884 71.5906 96.3706C71.3474 96.1351 70.9672 96.0654 70.669 96.194C70.3656 96.3175 70.1423 96.5761 70.0085 96.8538C69.8741 97.1354 69.8255 97.4414 69.8082 97.7345C69.7916 98.0289 69.8024 98.315 69.8101 98.5895C69.8191 98.8641 69.8351 99.1278 69.853 99.3786C69.9285 100.383 70.0424 101.191 70.116 101.75C70.1538 102.028 70.1832 102.243 70.2037 102.393C70.2133 102.465 70.2204 102.52 70.2255 102.561C70.23 102.596 70.2312 102.616 70.2312 102.616Z" fill="white"/>
<path d="M67.8637 102.711C67.8727 102.719 67.8874 102.934 67.9104 103.308C67.9328 103.742 67.9597 104.261 67.9904 104.866L67.9757 104.828C68.3373 105.245 68.745 105.715 69.186 106.223L69.1239 106.196C69.5642 106.171 70.0346 106.145 70.5229 106.117L70.464 106.147C70.6887 105.872 70.9223 105.587 71.161 105.296C71.2788 105.153 71.3959 105.011 71.5104 104.871L71.4919 104.925C71.4733 104.105 71.4554 103.328 71.4388 102.62L71.5149 102.693C70.4954 102.704 69.6116 102.714 68.9012 102.722C68.6176 102.722 68.3687 102.721 68.146 102.721C67.9674 102.719 67.8695 102.716 67.8637 102.711C67.858 102.705 67.945 102.697 68.1127 102.687C68.3303 102.675 68.5735 102.663 68.85 102.649C69.5732 102.62 70.473 102.585 71.5104 102.544L71.5847 102.541L71.5872 102.617C71.6084 103.324 71.632 104.101 71.6564 104.921L71.6576 104.951L71.6378 104.976C71.5232 105.116 71.4068 105.258 71.289 105.401C71.0496 105.692 70.8154 105.977 70.5901 106.25L70.5671 106.279L70.5312 106.281C70.0429 106.304 69.5725 106.327 69.1316 106.349L69.0932 106.351L69.0688 106.322C68.6362 105.807 68.2362 105.33 67.8816 104.908L67.8669 104.89V104.869C67.8612 104.249 67.856 103.717 67.8516 103.272C67.8522 102.901 67.8548 102.702 67.8637 102.711Z" fill="white"/>
<path d="M71.4763 104.735C71.4744 104.739 71.4276 104.717 71.3438 104.679C71.26 104.641 71.1364 104.589 70.9809 104.535C70.6705 104.428 70.22 104.327 69.7176 104.342C69.2152 104.357 68.771 104.485 68.4676 104.612C68.3153 104.675 68.1956 104.734 68.1137 104.778C68.0318 104.82 67.987 104.845 67.9844 104.842C67.9825 104.838 68.0241 104.808 68.1028 104.758C68.1816 104.709 68.3 104.644 68.4516 104.575C68.7544 104.438 69.2043 104.302 69.715 104.287C70.2257 104.271 70.6833 104.38 70.9937 104.498C71.1492 104.557 71.2715 104.615 71.3534 104.659C71.4353 104.704 71.4782 104.732 71.4763 104.735Z" fill="white"/>
<path d="M71.4763 104.175C71.4744 104.179 71.4276 104.157 71.3438 104.118C71.26 104.08 71.1364 104.028 70.9809 103.974C70.6705 103.867 70.22 103.766 69.7169 103.782C69.2145 103.797 68.7704 103.925 68.467 104.051C68.3147 104.114 68.195 104.174 68.1137 104.217C68.0318 104.26 67.987 104.285 67.9844 104.281C67.9825 104.278 68.0235 104.247 68.1028 104.198C68.1816 104.149 68.3 104.083 68.4516 104.015C68.7544 103.878 69.2043 103.742 69.715 103.726C70.2257 103.71 70.6833 103.819 70.9937 103.937C71.1499 103.996 71.2715 104.055 71.3534 104.099C71.4347 104.143 71.4776 104.172 71.4763 104.175Z" fill="white"/>
<path d="M71.4411 103.642C71.4392 103.646 71.3925 103.624 71.3086 103.586C71.2242 103.548 71.1013 103.496 70.9458 103.442C70.6354 103.334 70.1848 103.234 69.6824 103.249C69.18 103.265 68.7358 103.392 68.4325 103.518C68.2802 103.581 68.1605 103.64 68.0786 103.684C67.9966 103.727 67.9518 103.752 67.9493 103.748C67.9474 103.745 67.989 103.714 68.0677 103.665C68.1464 103.615 68.2648 103.55 68.4165 103.482C68.7192 103.345 69.1691 103.208 69.6798 103.193C70.1912 103.177 70.6482 103.286 70.9586 103.404C71.1147 103.463 71.2363 103.521 71.3182 103.565C71.3995 103.611 71.4424 103.64 71.4411 103.642Z" fill="white"/>
<path d="M40.4297 67.1699C40.4297 67.1699 40.5513 81.504 41.2802 85.8771L59.2585 85.0266C59.2585 85.0266 57.679 70.9357 58.2863 67.1699H40.4297Z" fill="#EBEBEB"/>
<path d="M55.5796 73.1909C55.5854 73.2882 52.8891 73.5295 49.5585 73.7298C46.2267 73.9301 43.5214 74.014 43.5156 73.9167C43.5099 73.8194 46.2056 73.5781 49.5374 73.3778C52.868 73.1775 55.5732 73.0936 55.5796 73.1909Z" fill="white"/>
<path d="M55.5835 76.2271C55.5893 76.3243 52.893 76.5656 49.5624 76.7659C46.2299 76.9663 43.5253 77.0501 43.5195 76.9528C43.5138 76.8555 46.2095 76.6143 49.5413 76.4139C52.8719 76.2136 55.5778 76.1298 55.5835 76.2271Z" fill="white"/>
<path d="M52.526 79.2085C52.5317 79.3058 50.9976 79.4773 49.1 79.5912C47.2018 79.7051 45.6581 79.7192 45.6524 79.6219C45.6466 79.5247 47.18 79.3538 49.0789 79.2392C50.9765 79.1247 52.5202 79.1112 52.526 79.2085Z" fill="white"/>
<path d="M39.5781 109.341C39.5781 109.341 39.6997 123.676 40.4287 128.049L58.4069 127.198C58.4069 127.198 56.8274 113.107 57.4354 109.341H39.5781V109.341Z" fill="#EBEBEB"/>
<path d="M54.7281 115.363C54.7338 115.46 52.0375 115.701 48.707 115.901C45.3751 116.102 42.6698 116.186 42.6641 116.088C42.6583 115.991 45.354 115.75 48.6858 115.549C52.0164 115.349 54.7223 115.266 54.7281 115.363Z" fill="white"/>
<path d="M54.732 118.398C54.7377 118.495 52.0414 118.736 48.7109 118.937C45.379 119.137 42.6737 119.221 42.668 119.123C42.6622 119.026 45.3579 118.785 48.6897 118.585C52.0209 118.384 54.7262 118.301 54.732 118.398Z" fill="white"/>
<path d="M51.6744 121.379C51.6802 121.476 50.1461 121.648 48.2485 121.762C46.3502 121.876 44.8066 121.89 44.8008 121.793C44.795 121.695 46.3285 121.524 48.2274 121.41C50.1256 121.296 51.6686 121.282 51.6744 121.379Z" fill="white"/>
<path d="M88.7109 70.9688L90.4921 112.312L142.104 112.935L139.787 71.5147L88.7109 70.9688Z" fill="#EBEBEB"/>
<path d="M139.382 70.6719H88.1133V109.385H139.382V70.6719Z" fill="#F5F5F5"/>
<path d="M139.381 109.385C139.381 109.385 139.371 109.135 139.365 108.667C139.361 108.188 139.356 107.498 139.349 106.601C139.34 104.786 139.328 102.142 139.312 98.7675C139.294 92.0174 139.267 82.3579 139.236 70.6721L139.381 70.8167C124.887 70.8257 107.196 70.8366 88.1167 70.8481H88.1122L88.2882 70.6721C88.2818 84.5953 88.2761 97.778 88.2709 109.384L88.1122 109.226C103.282 109.258 116.078 109.286 125.093 109.305C129.602 109.323 133.163 109.338 135.611 109.347C136.825 109.356 137.761 109.362 138.407 109.366C138.718 109.37 138.956 109.374 139.13 109.375C139.294 109.379 139.381 109.385 139.381 109.385C139.381 109.385 139.306 109.391 139.148 109.394C138.979 109.396 138.746 109.399 138.443 109.403C137.804 109.407 136.88 109.414 135.679 109.422C133.239 109.432 129.69 109.446 125.198 109.464C116.157 109.484 103.325 109.511 88.1135 109.544L87.9548 109.544V109.385C87.9497 97.778 87.9439 84.5953 87.9375 70.6727V70.4961H88.1141H88.1186C107.198 70.5076 124.889 70.5185 139.383 70.5275H139.528L139.527 70.6721C139.496 82.3956 139.47 92.0865 139.452 98.8583C139.436 102.218 139.423 104.852 139.415 106.659C139.408 107.544 139.402 108.225 139.398 108.698C139.392 109.157 139.381 109.385 139.381 109.385Z" fill="#E0E0E0"/>
<path d="M115.084 78.873H94.3008V105.029H115.084V78.873Z" fill="#F5F5F5"/>
<path d="M115.082 105.029C115.079 105.026 115.076 104.982 115.073 104.898C115.071 104.798 115.068 104.677 115.064 104.526C115.06 104.181 115.053 103.705 115.046 103.095C115.036 101.831 115.021 100.018 115.004 97.7289C114.984 93.1247 114.957 86.6095 114.925 78.8738L115.083 79.0319C108.89 79.037 101.802 79.0434 94.3021 79.0505C94.2605 79.0876 94.6337 78.7196 94.4762 78.879V78.886V78.9001V78.9282V78.9852V79.0985V79.325V79.7775V80.6793C94.4762 81.279 94.4762 81.8761 94.4756 82.47C94.4749 83.6578 94.4743 84.8335 94.4743 85.9945C94.4724 88.317 94.4705 90.5839 94.4685 92.7817C94.4609 97.1746 94.4532 101.292 94.4461 105.029L94.2996 104.883C100.535 104.914 105.709 104.94 109.347 104.958C111.152 104.974 112.575 104.987 113.569 104.996C114.044 105.003 114.415 105.009 114.689 105.013C114.943 105.018 115.082 105.029 115.082 105.029C115.087 105.034 114.965 105.04 114.719 105.045C114.453 105.049 114.091 105.055 113.628 105.062C112.641 105.071 111.23 105.084 109.439 105.1C105.779 105.118 100.574 105.145 94.3002 105.175L94.1543 105.176V105.029C94.1473 101.291 94.1402 97.174 94.1325 92.781C94.1306 90.5833 94.1287 88.317 94.1268 85.9938C94.1261 84.8322 94.1255 83.6572 94.1255 82.4694C94.1255 81.8754 94.1255 81.2783 94.1249 80.6786V79.7769V79.3244V79.0978V78.9846V78.9276V78.8994V78.8854V78.8783C93.9681 79.0338 94.338 78.6582 94.3034 78.6972C101.803 78.7036 108.891 78.71 115.084 78.7158H115.243L115.242 78.8738C115.21 86.6524 115.183 93.2022 115.164 97.8313C115.146 100.105 115.132 101.906 115.122 103.162C115.114 103.758 115.108 104.224 115.103 104.561C115.1 104.706 115.097 104.821 115.094 104.915C115.089 104.994 115.086 105.033 115.082 105.029Z" fill="#E0E0E0"/>
<path d="M134.924 72.8887H95.0938V76.6576H134.924V72.8887Z" fill="#F5F5F5"/>
<path d="M134.924 76.6565C134.92 76.6521 134.915 76.5644 134.91 76.3986C134.906 76.2149 134.901 75.9737 134.894 75.6677C134.884 75.013 134.871 74.0825 134.853 72.8882L134.924 72.9593C128.208 73.0213 112.897 73.0642 95.0971 73.0642H95.0952C95.4472 72.7122 95.1925 72.9669 95.2712 72.8889V72.8901V72.894V72.9017V72.917V72.9471V73.0073V73.1282V73.3701V73.8521C95.2712 74.1721 95.2712 74.4908 95.2712 74.8063C95.2712 75.4373 95.2706 76.0569 95.2706 76.6572L95.0952 76.4818C106.234 76.5113 116.16 76.5375 123.328 76.5567C126.901 76.5785 129.785 76.5964 131.801 76.6092C132.786 76.6194 133.558 76.6277 134.107 76.6335C134.357 76.6386 134.557 76.6425 134.711 76.6457C134.848 76.6489 134.92 76.6527 134.924 76.6565C134.928 76.6604 134.864 76.6649 134.734 76.6687C134.586 76.6719 134.394 76.6757 134.152 76.6809C133.613 76.6866 132.855 76.6949 131.887 76.7052C129.88 76.7173 127.01 76.7353 123.454 76.757C116.254 76.7762 106.284 76.8025 95.0946 76.8319L94.9192 76.8325V76.6565C94.9192 76.0562 94.9192 75.4367 94.9186 74.8057C94.9186 74.4901 94.9186 74.1714 94.9186 73.8514V73.3695V73.1276V73.0066V72.9465V72.9164V72.901V72.8933V72.8895V72.8882C94.9973 72.8095 94.7426 73.0636 95.0952 72.7109H95.0971C112.897 72.7109 128.208 72.7538 134.924 72.8159L134.997 72.8165L134.995 72.8876C134.978 74.0997 134.964 75.0437 134.955 75.7087C134.948 76.0082 134.942 76.2444 134.938 76.4236C134.933 76.5829 134.929 76.661 134.924 76.6565Z" fill="#E0E0E0"/>
<path d="M134.923 78.873H117.625V94.6369H134.923V78.873Z" fill="#F5F5F5"/>
<path d="M134.924 94.6373C134.919 94.6315 134.914 94.5279 134.908 94.3327C134.903 94.1144 134.898 93.8315 134.89 93.477C134.881 92.7064 134.868 91.6261 134.851 90.2635C134.833 87.4898 134.806 83.5743 134.775 78.8735L134.924 79.0232C129.929 79.0309 123.988 79.0399 117.628 79.0495C117.587 79.0872 117.96 78.7167 117.802 78.876V78.8805V78.8888V78.9055V78.9387V79.0059V79.1403V79.4085V79.9435C117.802 80.2994 117.802 80.6546 117.802 81.0072C117.802 81.7131 117.802 82.4133 117.801 83.1064C117.8 84.492 117.798 85.8501 117.797 87.173C117.791 89.8175 117.786 92.3224 117.781 94.636L117.626 94.4811C122.756 94.5131 127.054 94.54 130.103 94.5592C131.604 94.5765 132.795 94.5906 133.643 94.6002C134.036 94.6079 134.348 94.6136 134.588 94.6181C134.804 94.6251 134.919 94.6309 134.924 94.6373C134.93 94.6431 134.827 94.6488 134.622 94.6546C134.391 94.6591 134.089 94.6648 133.708 94.6725C132.869 94.6821 131.689 94.6962 130.202 94.7135C127.13 94.7327 122.796 94.7595 117.626 94.7915L117.472 94.7928L117.471 94.6373C117.466 92.3237 117.461 89.8187 117.455 87.1743C117.454 85.8514 117.452 84.4933 117.45 83.1077C117.45 82.4146 117.45 81.7144 117.449 81.0085C117.449 80.6552 117.449 80.3007 117.449 79.9448V79.4098V79.1416V79.0072V78.94V78.9067V78.8901V78.8818V78.8773C117.292 79.0335 117.664 78.6597 117.627 78.6981C123.987 78.7077 129.927 78.7167 134.924 78.7243H135.075L135.074 78.8741C135.042 83.6139 135.015 87.5627 134.997 90.3595C134.98 91.7074 134.967 92.7768 134.958 93.5391C134.951 93.8815 134.945 94.1547 134.94 94.3659C134.936 94.5503 134.93 94.6424 134.924 94.6373Z" fill="#E0E0E0"/>
<path d="M134.923 97.1084H117.625V105.029H134.923V97.1084Z" fill="#F5F5F5"/>
<path d="M134.923 105.029C134.914 105.02 134.905 104.822 134.895 104.455C134.887 104.057 134.877 103.528 134.863 102.864C134.847 101.467 134.823 99.5102 134.794 97.1083L134.922 97.2363C130.411 97.2491 124.324 97.2658 117.625 97.2843C117.467 97.4418 117.839 97.0699 117.8 97.109V97.1109V97.1147V97.123V97.139V97.1717V97.2369V97.3675V97.6273V98.1457C117.8 98.4901 117.799 98.8331 117.799 99.1736C117.799 99.8545 117.798 100.528 117.798 101.19C117.795 102.515 117.793 103.799 117.791 105.028L117.623 104.861C122.612 104.893 126.905 104.921 129.993 104.941C131.506 104.96 132.721 104.976 133.598 104.987C133.997 104.995 134.319 105.002 134.571 105.008C134.797 105.016 134.916 105.022 134.923 105.029C134.93 105.036 134.823 105.042 134.612 105.049C134.369 105.055 134.059 105.062 133.673 105.071C132.806 105.082 131.603 105.097 130.107 105.117C126.991 105.136 122.659 105.164 117.624 105.197L117.457 105.198V105.03C117.455 103.801 117.453 102.517 117.451 101.192C117.45 100.53 117.449 99.8565 117.449 99.1755C117.449 98.835 117.448 98.492 117.448 98.1477V97.6293V97.3694V97.2389V97.1736V97.141V97.1249V97.1166V97.1128V97.1109C117.41 97.148 117.782 96.7761 117.625 96.9336C124.324 96.9521 130.411 96.9694 134.922 96.9816L135.051 96.9822L135.05 97.1102C135.021 99.5441 134.998 101.528 134.982 102.944C134.968 103.595 134.957 104.114 134.95 104.505C134.941 104.857 134.932 105.038 134.923 105.029Z" fill="#E0E0E0"/>
<path d="M114.566 78.918C108.132 87.805 100.73 96.1417 94.2969 105.029L114.566 78.918Z" fill="white"/>
<path d="M94.2979 105.029C94.2883 105.022 94.3465 104.922 94.4675 104.737C94.6147 104.522 94.7939 104.259 95.0102 103.941C95.4857 103.251 96.1968 102.271 97.0909 101.071C98.8765 98.6695 101.432 95.4189 104.294 91.8637C107.157 88.3072 109.74 85.0848 111.575 82.7245C112.465 81.5751 113.198 80.6292 113.743 79.9252C113.981 79.6231 114.178 79.3735 114.339 79.168C114.478 78.9972 114.556 78.9108 114.566 78.9184C114.576 78.9255 114.517 79.026 114.396 79.2103C114.249 79.426 114.07 79.689 113.854 80.0064C113.378 80.6951 112.667 81.6756 111.773 82.8756C109.988 85.2775 107.431 88.5287 104.569 92.0845C101.707 95.6391 99.1235 98.8615 97.2893 101.222C96.399 102.372 95.6662 103.318 95.1209 104.022C94.8829 104.324 94.6864 104.573 94.5251 104.779C94.3856 104.95 94.3075 105.036 94.2979 105.029Z" fill="#E0E0E0"/>
<path d="M115.081 105.03C115.005 105.09 110.29 99.2838 104.552 92.062C98.8117 84.8377 94.2216 78.9343 94.2978 78.8735C94.374 78.8127 99.0876 84.6182 104.828 91.8425C110.567 99.0642 115.157 104.969 115.081 105.03Z" fill="#E0E0E0"/>
<path d="M90.4907 78.9289C90.4907 80.7248 89.0347 82.1801 87.2395 82.1801C85.4436 82.1801 83.9883 80.7248 83.9883 78.9289C83.9883 77.1331 85.4436 75.6777 87.2395 75.6777C89.0353 75.6777 90.4907 77.1337 90.4907 78.9289Z" fill="#E0E0E0"/>
<path d="M143.666 71.0373C143.666 72.8332 142.21 74.2885 140.415 74.2885C138.619 74.2885 137.164 72.8332 137.164 71.0373C137.164 69.2415 138.62 67.7861 140.415 67.7861C142.211 67.7861 143.666 69.2415 143.666 71.0373Z" fill="#E0E0E0"/>
<path d="M270.85 93.6846H233.383V147.992H270.85V93.6846Z" fill="#E0E0E0"/>
<path d="M268.975 93.6846H231.508V147.992H268.975V93.6846Z" fill="#F5F5F5"/>
<path d="M264.318 99.5654H236.16V142.109H264.318V99.5654Z" fill="white"/>
<path d="M264.318 142.11C264.318 142.11 264.314 142.037 264.312 141.902C264.311 141.761 264.309 141.561 264.307 141.298C264.304 140.764 264.301 139.981 264.295 138.965C264.29 136.926 264.281 133.954 264.27 130.201C264.259 122.699 264.244 112.076 264.224 99.5656L264.318 99.6591C255.715 99.6616 246.183 99.6642 236.164 99.6674H236.16L236.262 99.5656C236.254 115.615 236.247 130.413 236.242 142.11L236.16 142.028C244.735 142.046 251.764 142.061 256.655 142.071C259.102 142.08 261.012 142.087 262.317 142.092C262.965 142.096 263.463 142.099 263.803 142.101C264.141 142.104 264.318 142.11 264.318 142.11C264.318 142.11 264.152 142.115 263.821 142.119C263.484 142.121 262.992 142.124 262.35 142.128C261.049 142.132 259.144 142.139 256.706 142.148C251.803 142.158 244.756 142.173 236.16 142.191H236.079V142.11C236.073 130.412 236.066 115.615 236.059 99.5656V99.4639H236.16H236.164C246.183 99.4671 255.715 99.4696 264.318 99.4722H264.411V99.5656C264.393 112.101 264.377 122.745 264.365 130.263C264.354 134.007 264.346 136.971 264.34 139.006C264.335 140.014 264.331 140.79 264.329 141.321C264.326 141.578 264.324 141.775 264.323 141.913C264.322 142.045 264.318 142.11 264.318 142.11Z" fill="#E0E0E0"/>
<path d="M269.08 93.6843C269.102 93.7015 268.848 94.0727 268.412 94.6545C267.977 95.2363 267.36 96.0279 266.654 96.8843C265.949 97.7406 265.29 98.4983 264.802 99.0372C264.314 99.5761 263.999 99.8967 263.978 99.8782C263.956 99.8596 264.233 99.5051 264.693 98.9431C265.195 98.3339 265.813 97.5838 266.497 96.7543C267.18 95.9249 267.797 95.1748 268.299 94.5649C268.763 94.0062 269.057 93.6663 269.08 93.6843Z" fill="#E0E0E0"/>
<path d="M264.461 141.973C265.859 144.197 267.511 146.261 269.372 148.115L264.461 141.973Z" fill="white"/>
<path d="M269.374 148.115C269.355 148.133 269.021 147.844 268.518 147.336C268.014 146.829 267.347 146.099 266.665 145.246C265.983 144.393 265.418 143.582 265.034 142.979C264.649 142.376 264.44 141.986 264.463 141.972C264.488 141.956 264.74 142.318 265.153 142.898C265.566 143.478 266.146 144.271 266.824 145.119C267.501 145.966 268.147 146.706 268.622 147.237C269.097 147.768 269.395 148.094 269.374 148.115Z" fill="#E0E0E0"/>
<path d="M231.5 147.95C233.136 145.931 234.772 143.913 236.408 141.895L231.5 147.95Z" fill="white"/>
<path d="M236.409 141.893C236.452 141.928 235.389 143.313 234.034 144.985C232.679 146.657 231.545 147.984 231.501 147.949C231.458 147.914 232.521 146.529 233.876 144.857C235.231 143.185 236.365 141.858 236.409 141.893Z" fill="#E0E0E0"/>
<path d="M231.505 93.6843C231.549 93.6491 232.616 94.9246 233.887 96.5317C235.159 98.14 236.154 99.4712 236.109 99.5057C236.065 99.5409 234.999 98.2661 233.727 96.6577C232.456 95.0507 231.461 93.7189 231.505 93.6843Z" fill="#E0E0E0"/>
<path d="M255.546 108.204H246.117V134.973H255.546V108.204Z" fill="#E0E0E0"/>
<path d="M262.215 35.9798L256.852 36.0088L256.996 62.6968L262.359 62.6678L262.215 35.9798Z" fill="#E0E0E0"/>
<path d="M224.276 36.05L210.387 36.125L210.466 50.8584L224.356 50.7834L224.276 36.05Z" fill="#EBEBEB"/>
<path d="M238.1 35.9758L224.211 36.0508L224.29 50.7842L238.18 50.7092L238.1 35.9758Z" fill="#F5F5F5"/>
<path d="M210.404 40.2029C219.634 40.2791 228.887 40.2253 238.116 40.0755C238.306 40.073 238.305 39.7818 238.114 39.7805C228.884 39.7293 219.631 39.7747 210.402 39.9501C210.24 39.9533 210.241 40.2016 210.404 40.2029Z" fill="#E0E0E0"/>
<path d="M226.961 50.5395L201.727 50.6758L201.791 62.6822L227.026 62.5459L226.961 50.5395Z" fill="#EBEBEB"/>
<path d="M252.078 50.4028L226.844 50.5391L226.909 62.5455L252.143 62.4092L252.078 50.4028Z" fill="#F5F5F5"/>
<path d="M201.74 54.0221C218.503 54.2122 235.326 54.042 252.089 53.7738C252.279 53.7706 252.278 53.4794 252.087 53.4788C235.323 53.3904 218.5 53.4 201.739 53.7693C201.576 53.7725 201.577 54.0202 201.74 54.0221Z" fill="#E0E0E0"/>
<path d="M290.069 62.6895H192.305V66.9909H290.069V62.6895Z" fill="#E0E0E0"/>
<path d="M212.281 64.7578H208.312V79.4356H212.281V64.7578Z" fill="#E0E0E0"/>
<path d="M271.523 64.7568H267.555V79.4346H271.523V64.7568Z" fill="#E0E0E0"/>
<path d="M267.449 26.0277L262.086 26.0566L262.284 62.7619L267.647 62.733L267.449 26.0277Z" fill="#EBEBEB"/>
<path d="M275.83 32.8603L267.496 32.9053L267.657 62.6506L275.991 62.6055L275.83 32.8603Z" fill="#F5F5F5"/>
<path d="M275.767 38.6017C275.767 38.6817 273.901 38.7463 271.601 38.7463C269.299 38.7463 267.434 38.6817 267.434 38.6017C267.434 38.5217 269.299 38.457 271.601 38.457C273.901 38.457 275.767 38.5217 275.767 38.6017Z" fill="#E0E0E0"/>
<path d="M275.767 37.3517C275.767 37.4317 273.901 37.4963 271.601 37.4963C269.299 37.4963 267.434 37.4317 267.434 37.3517C267.434 37.2717 269.299 37.207 271.601 37.207C273.901 37.2077 275.767 37.2723 275.767 37.3517Z" fill="#E0E0E0"/>
<path d="M275.767 58.1407C275.767 58.2207 273.901 58.2854 271.601 58.2854C269.299 58.2854 267.434 58.2207 267.434 58.1407C267.434 58.0607 269.299 57.9961 271.601 57.9961C273.901 57.9961 275.767 58.0607 275.767 58.1407Z" fill="#E0E0E0"/>
<path d="M275.767 56.8907C275.767 56.9707 273.901 57.0354 271.601 57.0354C269.299 57.0354 267.434 56.9707 267.434 56.8907C267.434 56.8107 269.299 56.7461 271.601 56.7461C273.901 56.7467 275.767 56.8114 275.767 56.8907Z" fill="#E0E0E0"/>
<path d="M271.734 54.1646C271.654 54.1646 271.59 51.1636 271.59 47.4625C271.59 43.7601 271.654 40.7598 271.734 40.7598C271.814 40.7598 271.879 43.7601 271.879 47.4625C271.879 51.1636 271.814 54.1646 271.734 54.1646Z" fill="#E0E0E0"/>
<path d="M284.931 40.1748H275.859V62.6266H284.931V40.1748Z" fill="#EBEBEB"/>
<path d="M280.652 56.8046C279.459 56.8046 278.625 55.9553 278.625 54.7854C278.625 54.1505 278.87 53.6001 279.359 53.2705L279.565 53.554C279.16 53.8446 278.969 54.2881 278.969 54.7854C278.969 55.7268 279.642 56.4148 280.652 56.4148C281.662 56.4148 282.335 55.7262 282.335 54.7854C282.335 54.2881 282.144 53.8446 281.738 53.554L281.945 53.2705C282.427 53.5995 282.679 54.1505 282.679 54.7854C282.679 55.9553 281.838 56.8046 280.652 56.8046Z" fill="#FAFAFA"/>
<path d="M282.167 52.7125L281.861 52.5365C282.121 52.2306 282.343 51.6872 282.343 51.0984C282.343 50.2568 282.045 49.9208 281.593 49.9208C280.43 49.9208 281.287 52.5672 279.719 52.5672C279.115 52.5672 278.625 52.0622 278.625 51.0523C278.625 50.5474 278.778 49.997 279.015 49.6834L279.321 49.8594C279.076 50.1954 278.961 50.6318 278.961 51.06C278.961 51.8402 279.282 52.1851 279.71 52.1851C280.911 52.1851 280.062 49.5381 281.584 49.5381C282.235 49.5381 282.678 50.0962 282.678 51.1138C282.679 51.7717 282.457 52.3989 282.167 52.7125Z" fill="#FAFAFA"/>
<path d="M282.167 49.0572L281.861 48.8812C282.121 48.5753 282.343 48.0319 282.343 47.4425C282.343 46.6015 282.045 46.2649 281.593 46.2649C280.43 46.2649 281.287 48.9113 279.719 48.9113C279.115 48.9113 278.625 48.4063 278.625 47.3971C278.625 46.8915 278.778 46.3411 279.015 46.0275L279.321 46.2035C279.076 46.5401 278.961 46.9766 278.961 47.4047C278.961 48.1843 279.282 48.5292 279.71 48.5292C280.911 48.5292 280.062 45.8828 281.584 45.8828C282.235 45.8828 282.678 46.4409 282.678 47.4585C282.679 48.1164 282.457 48.7436 282.167 49.0572Z" fill="#FAFAFA"/>
<path d="M264.682 33.8472C265.534 33.8472 266.224 33.1569 266.224 32.3054C266.224 31.4539 265.534 30.7637 264.682 30.7637C263.831 30.7637 263.141 31.4539 263.141 32.3054C263.141 33.1569 263.831 33.8472 264.682 33.8472Z" fill="#E0E0E0"/>
<path d="M265.16 36.5449H264.207V58.3804H265.16V36.5449Z" fill="#E0E0E0"/>
<path d="M301.315 290.573C301.315 290.665 239.499 290.739 163.262 290.739C86.9988 290.739 25.1953 290.664 25.1953 290.573C25.1953 290.48 86.9982 290.406 163.262 290.406C239.499 290.406 301.315 290.48 301.315 290.573Z" fill="#263238"/>
<path d="M99.9588 70.5527C89.6881 86.7076 90.3607 109.106 101.582 124.615C109.062 134.954 120.284 141.885 129.195 151.02C138.105 160.156 144.873 173.619 140.17 185.483C135.383 197.56 121.362 202.473 110.861 210.123C99.4238 218.456 91.3905 231.327 88.9297 245.262C86.4689 259.198 89.6074 274.041 97.4986 285.788H206.57C206.57 285.788 225.73 249.273 201.096 221.446C176.462 193.618 163.233 193.162 164.145 174.915C165.058 156.668 177.831 150.737 185.129 143.895C192.428 137.053 228.011 121.086 207.026 70.5534L99.9588 70.5527Z" fill="#FAFAFA"/>
<path d="M99.9576 70.553C99.9576 70.553 100.591 70.5427 101.835 70.5376C103.084 70.5344 104.936 70.5293 107.364 70.5229C112.232 70.5159 119.407 70.5056 128.648 70.4922C147.15 70.4787 173.924 70.4589 207.025 70.4346H207.105L207.134 70.5075C208.624 74.2925 210.13 78.1882 211.198 82.3181C212.296 86.4295 213.197 90.713 213.515 95.152C213.849 99.5821 213.706 104.157 212.823 108.7C211.913 113.231 210.29 117.718 207.894 121.869C206.702 123.949 205.3 125.924 203.785 127.83C202.253 129.725 200.557 131.506 198.761 133.206C196.963 134.904 195.047 136.503 193.058 138.033C191.074 139.569 189.002 141.02 186.979 142.552C185.966 143.316 185.04 144.173 184.075 145.032C183.105 145.875 182.106 146.687 181.098 147.492C179.083 149.105 177.047 150.716 175.125 152.481C171.246 155.951 167.969 160.285 166.167 165.329C165.293 167.846 164.666 170.483 164.461 173.183C164.407 173.857 164.317 174.53 164.292 175.207C164.278 175.885 164.24 176.564 164.272 177.244C164.281 178.604 164.434 179.962 164.681 181.302C165.193 183.981 166.319 186.548 167.954 188.773C169.567 191.019 171.554 192.996 173.611 194.898C177.753 198.684 182.144 202.298 186.352 206.2C190.58 210.081 194.685 214.177 198.639 218.483C200.601 220.643 202.596 222.816 204.311 225.227C206.086 227.592 207.575 230.177 208.884 232.851C211.463 238.225 213.058 244.12 213.581 250.147C214.143 256.175 213.713 262.318 212.518 268.33C211.927 271.338 211.142 274.318 210.178 277.249C209.214 280.181 208.101 283.072 206.715 285.864L206.671 285.954H206.568C205.683 285.954 204.722 285.954 203.76 285.954C166.527 285.951 130.602 285.949 97.4974 285.946H97.4123L97.3656 285.876C92.1688 278.074 89.0833 269.112 88.2321 260.13C87.3278 251.147 88.7102 242.138 92.0056 234.143C95.258 226.118 100.314 219.08 106.423 213.549C109.469 210.761 112.865 208.48 116.267 206.369C119.672 204.255 123.106 202.3 126.353 200.161C129.586 198.017 132.701 195.733 135.231 192.939C137.769 190.168 139.709 186.914 140.724 183.416C141.744 179.914 141.754 176.243 141.158 172.785C140.553 169.316 139.332 166.035 137.787 163.013C136.237 159.987 134.358 157.209 132.297 154.674C130.24 152.131 127.954 149.873 125.654 147.743C121.036 143.492 116.311 139.775 112.058 135.955C109.928 134.049 107.91 132.125 106.052 130.148C104.207 128.16 102.521 126.122 101.072 124.01C98.1515 119.798 96.1483 115.359 94.8318 111.075C93.5134 106.786 92.858 102.639 92.7076 98.8243C92.618 97.872 92.6532 96.9376 92.6545 96.0256C92.6667 95.1136 92.6392 94.2221 92.7339 93.3574C92.8004 92.4915 92.8657 91.6474 92.9291 90.825C93.0276 90.007 93.1627 89.2147 93.2728 88.4429C94.2328 82.2643 96.0971 77.7498 97.5505 74.8602C97.8987 74.1261 98.2052 73.4803 98.5374 72.9575C98.8491 72.4269 99.1102 71.9814 99.3201 71.6224C99.7412 70.9101 99.9576 70.553 99.9576 70.553C99.9128 70.6317 99.7348 70.9459 99.3393 71.6448C99.1332 72.0045 98.8772 72.4506 98.572 72.9824C98.2475 73.5027 97.9441 74.1498 97.6004 74.8851C96.1649 77.7792 94.3204 82.2925 93.379 88.4602C93.2715 89.2307 93.1384 90.0211 93.0424 90.8378C92.9816 91.6582 92.9182 92.5005 92.8542 93.3645C92.762 94.2272 92.7915 95.1168 92.7812 96.0262C92.7819 96.9357 92.7486 97.8682 92.8401 98.8173C92.9982 102.622 93.6593 106.756 94.9809 111.029C96.3 115.297 98.3032 119.716 101.219 123.908C102.665 126.009 104.348 128.038 106.19 130.018C108.045 131.987 110.062 133.905 112.191 135.805C116.443 139.615 121.172 143.327 125.803 147.58C128.109 149.711 130.406 151.975 132.475 154.529C134.548 157.073 136.438 159.862 137.999 162.904C139.556 165.942 140.788 169.243 141.401 172.742C142.006 176.229 142 179.941 140.971 183.485C139.946 187.027 137.984 190.32 135.425 193.117C132.875 195.938 129.743 198.235 126.502 200.388C123.247 202.536 119.812 204.494 116.413 206.606C113.017 208.716 109.642 210.987 106.614 213.761C100.541 219.267 95.5128 226.272 92.2814 234.255C89.0072 242.21 87.6369 251.166 88.5393 260.1C89.3886 269.032 92.4612 277.945 97.6286 285.699L97.4968 285.628C130.601 285.626 166.526 285.624 203.759 285.621C204.721 285.621 205.682 285.621 206.567 285.621L206.42 285.71C207.789 282.951 208.903 280.061 209.862 277.146C210.822 274.228 211.603 271.26 212.192 268.266C213.382 262.281 213.808 256.17 213.25 250.178C212.732 244.186 211.148 238.331 208.587 232.994C207.287 230.338 205.808 227.771 204.046 225.42C202.343 223.027 200.36 220.865 198.398 218.704C194.45 214.404 190.353 210.314 186.132 206.438C181.931 202.54 177.547 198.931 173.394 195.132C171.331 193.223 169.33 191.233 167.696 188.957C166.039 186.703 164.891 184.083 164.372 181.362C164.121 180.001 163.967 178.625 163.959 177.251C163.927 176.563 163.965 175.879 163.979 175.195C164.005 174.511 164.096 173.833 164.151 173.153C164.358 170.432 164.992 167.768 165.876 165.225C167.699 160.127 171.018 155.747 174.92 152.26C176.853 150.486 178.896 148.871 180.911 147.261C181.919 146.458 182.915 145.647 183.879 144.81C184.828 143.967 185.779 143.088 186.799 142.32C188.832 140.781 190.899 139.335 192.88 137.804C194.864 136.279 196.773 134.687 198.564 132.998C200.352 131.306 202.041 129.536 203.566 127.653C205.072 125.759 206.468 123.797 207.653 121.731C210.037 117.607 211.652 113.151 212.56 108.648C213.44 104.132 213.587 99.5815 213.258 95.1706C212.944 90.7507 212.05 86.4813 210.959 82.3814C209.898 78.2637 208.399 74.375 206.915 70.5965L207.024 70.6694C173.942 70.6451 147.184 70.6253 128.694 70.6119C119.446 70.5984 112.265 70.5882 107.394 70.5811C104.959 70.5747 103.102 70.5696 101.851 70.5664C100.602 70.5632 99.9576 70.553 99.9576 70.553Z" fill="#263238"/>
<path d="M202.672 100.181C218.737 102.822 193.407 131.274 179.071 142.501C170.769 149.002 161.854 156.052 157.911 165.831C153.438 176.926 156.753 189.396 154.586 200.557C154.226 202.41 151.487 202.119 151.514 200.231C151.621 192.906 151.426 185.584 150.212 178.371C148.49 168.142 144.558 158.022 137.388 150.525C131.536 144.406 123.862 140.34 117.62 134.619C108.506 126.267 99.1437 115.494 98.2305 103.166C98.2305 103.166 115.729 89.0704 125.443 90.8496C136.794 92.929 147.969 110.445 165.559 108.439C177.841 107.038 184.038 97.1191 202.672 100.181Z" fill="#00A0E2"/>
<path d="M204.098 252.467C203.693 248.45 202.621 243.904 199.056 242.009C196.896 240.86 194.266 240.988 191.901 241.61C189.535 242.233 187.313 243.308 184.968 244.005C180.354 245.375 175.3 245.215 170.782 243.555C166.424 241.954 162.682 239.06 158.635 236.785C154.587 234.51 149.85 232.814 145.345 233.935C137.575 235.868 133.531 245.222 125.85 247.481C122.436 248.484 118.77 247.921 115.299 247.134C111.828 246.348 108.344 245.338 104.788 245.472C102.002 245.576 99.1027 246.539 97.1494 248.449L97.1699 248.422C97.15 248.442 97.1334 248.463 97.1135 248.483C96.7923 248.801 96.4972 249.145 96.2329 249.516C93.8502 252.692 93.4694 256.963 94.2022 260.841C95.0227 265.184 97.0515 269.198 99.2287 273.043C101.793 277.573 104.706 282.084 108.946 285.104C114.177 288.83 120.754 286.259 127.156 286.764C142.09 287.942 158.155 288.746 173.091 287.589C180.979 286.977 188.374 287.832 194.634 282.992C199.038 279.587 201.902 274.455 203.283 269.062C204.664 263.669 204.658 258.006 204.098 252.467Z" fill="#00A0E2"/>
<g opacity="0.24">
<path d="M175.914 244.772C175.071 246.063 174.712 247.793 175.524 249.103C176.337 250.414 177.436 251.605 177.789 253.107C178.342 255.464 176.923 257.77 175.864 259.949C173.971 263.846 173.109 268.291 173.748 272.577C174.386 276.862 176.585 280.956 180.015 283.603C181.531 284.774 183.502 285.681 185.33 285.108C187.051 284.569 188.164 282.822 188.506 281.052C188.847 279.281 188.565 277.457 188.34 275.667C187.297 267.362 187.511 258.9 188.972 250.658C189.217 249.28 189.45 247.707 188.577 246.613C188.019 245.915 187.13 245.587 186.282 245.304C182.953 244.196 179.361 245.427 175.914 244.772Z" fill="black"/>
</g>
<path d="M89.4943 290.74C89.4943 290.74 89.1942 285.734 95.7228 282.947H210.444C210.444 282.947 216.426 285.975 217.163 290.636L89.4943 290.74Z" fill="#263238"/>
<path d="M208.013 71.1627C207.954 71.1909 207.893 71.2191 207.832 71.2472L99.9589 70.5528C99.9589 70.5528 99.5762 70.3077 99.0021 69.8591C95.9288 67.4552 97.6536 62.5176 101.555 62.549L206.254 63.3944C210.576 63.4296 211.921 69.3163 208.013 71.1627Z" fill="#263238"/>
<g opacity="0.24">
<path d="M190.746 112.312C190.963 112.728 190.154 113.627 188.608 115C187.056 116.374 184.791 118.259 181.913 120.58C179.018 122.881 175.511 125.656 171.044 128.246C168.807 129.538 166.316 130.712 163.592 131.666C162.222 132.125 160.803 132.552 159.31 132.85C157.826 133.168 156.276 133.379 154.683 133.452C151.506 133.634 148.275 133.169 145.383 132.181C142.508 131.183 140.055 129.777 137.911 128.367C135.76 126.941 133.906 125.533 132.159 124.186C130.419 122.836 128.833 121.534 127.415 120.31C121.749 115.4 118.769 111.79 119.344 111.093C119.938 110.368 123.948 112.665 130.2 116.506C131.762 117.465 133.472 118.515 135.306 119.641C137.138 120.757 139.109 121.989 141.119 123.128C143.135 124.267 145.239 125.303 147.42 125.975C149.587 126.623 151.898 126.931 154.357 126.793C159.27 126.543 164.038 124.811 168.169 122.818C172.322 120.786 176.034 118.487 179.273 116.674C182.508 114.84 185.274 113.485 187.288 112.765C189.305 112.043 190.538 111.912 190.746 112.312Z" fill="black"/>
</g>
<path d="M151.595 213.928C152.779 213.512 154.194 214.703 153.985 215.941C153.777 217.178 152.049 217.84 151.067 217.057C150.085 216.275 150.343 214.444 151.503 213.964" fill="#00A0E2"/>
<path d="M113.009 130.164C113.001 130.172 112.87 130.04 112.628 129.78C112.369 129.496 112.021 129.115 111.583 128.635C111.142 128.127 110.56 127.539 109.967 126.788C109.364 126.038 108.681 125.189 107.929 124.253C107.234 123.27 106.444 122.21 105.65 121.035C105.273 120.434 104.883 119.814 104.481 119.174C104.283 118.852 104.069 118.534 103.878 118.196C103.692 117.854 103.504 117.508 103.314 117.157C101.739 114.384 100.337 111.137 99.34 107.589C98.3422 104.04 97.8744 100.53 97.8321 97.3362C97.8296 96.5381 97.8731 95.7599 97.891 95.0041C97.9089 94.6265 97.9019 94.2527 97.9397 93.8879C97.9787 93.5231 98.0171 93.1641 98.0549 92.8114C98.1355 92.1061 98.1918 91.4226 98.2865 90.7711C98.4037 90.1241 98.5163 89.502 98.6238 88.9074C98.8069 87.7138 99.1224 86.6661 99.3483 85.7362C99.4712 85.2735 99.5672 84.8383 99.6894 84.4466C99.8161 84.0594 99.9326 83.7042 100.038 83.381C100.245 82.7653 100.409 82.2751 100.531 81.9103C100.647 81.5756 100.713 81.4015 100.724 81.4053C100.735 81.4092 100.69 81.5903 100.595 81.9314C100.488 82.3001 100.344 82.7954 100.162 83.4181C100.065 83.7433 99.9589 84.1004 99.8424 84.4895C99.7297 84.8825 99.6427 85.3189 99.5288 85.7817C99.3208 86.7129 99.0225 87.7593 98.8555 88.9497C98.755 89.5417 98.6501 90.1618 98.5406 90.8063C98.4536 91.4546 98.4043 92.1349 98.3294 92.8364C98.2949 93.1871 98.2597 93.5442 98.2238 93.9065C98.1893 94.2693 98.1989 94.6399 98.1835 95.0149C98.1707 95.7657 98.1317 96.5381 98.1387 97.3305C98.1982 100.5 98.6712 103.977 99.6606 107.497C100.649 111.016 102.032 114.242 103.584 117.008C103.771 117.357 103.956 117.703 104.137 118.043C104.326 118.381 104.537 118.699 104.731 119.021C105.126 119.66 105.51 120.281 105.881 120.882C106.661 122.057 107.437 123.121 108.118 124.11C108.853 125.055 109.52 125.911 110.111 126.668C110.689 127.428 111.256 128.027 111.681 128.547C112.099 129.044 112.431 129.439 112.678 129.733C112.904 130.009 113.017 130.157 113.009 130.164Z" fill="#263238"/>
<path d="M106.938 225.244C106.933 225.241 106.974 225.17 107.058 225.033C107.152 224.884 107.278 224.685 107.438 224.432C107.612 224.163 107.822 223.839 108.068 223.458C108.193 223.266 108.328 223.058 108.471 222.838C108.629 222.627 108.813 222.414 108.999 222.182C109.378 221.72 109.797 221.207 110.255 220.648C110.748 220.118 111.312 219.568 111.904 218.963C113.12 217.788 114.589 216.534 116.298 215.266C119.695 212.691 124.078 210.132 128.828 207.147C131.186 205.629 133.668 204.031 136.014 202.084C138.363 200.153 140.628 197.927 142.462 195.271C146.078 189.895 147.547 183.666 147.675 178.1C147.82 172.49 146.628 167.494 145.221 163.511C143.799 159.515 142.167 156.472 140.982 154.42C140.389 153.392 139.902 152.608 139.568 152.081C139.409 151.827 139.285 151.627 139.191 151.478C139.108 151.341 139.067 151.269 139.072 151.266C139.076 151.263 139.126 151.328 139.219 151.459C139.319 151.605 139.453 151.798 139.623 152.045C139.977 152.561 140.482 153.334 141.093 154.355C142.315 156.391 143.985 159.426 145.444 163.433C146.885 167.424 148.112 172.449 147.982 178.107C147.958 179.518 147.844 180.962 147.628 182.424C147.426 183.887 147.117 185.367 146.692 186.844C145.868 189.804 144.548 192.743 142.738 195.458C140.88 198.151 138.588 200.397 136.22 202.338C133.853 204.295 131.36 205.894 128.992 207.407C124.224 210.384 119.839 212.916 116.438 215.456C114.727 216.708 113.254 217.943 112.033 219.099C111.438 219.695 110.869 220.235 110.373 220.757C109.909 221.307 109.484 221.81 109.101 222.265C108.912 222.493 108.724 222.701 108.564 222.909C108.416 223.126 108.278 223.328 108.149 223.518C107.893 223.89 107.675 224.208 107.495 224.471C107.324 224.716 107.189 224.909 107.087 225.054C106.993 225.181 106.942 225.247 106.938 225.244Z" fill="#263238"/>
<path d="M100.984 236.553C100.994 236.559 100.945 236.661 100.844 236.85C100.721 237.07 100.571 237.338 100.388 237.665C100.182 238.013 99.9378 238.444 99.6908 238.963C99.4386 239.48 99.1199 240.051 98.8498 240.723C98.7058 241.056 98.5554 241.403 98.3993 241.764C98.245 242.127 98.119 242.518 97.9686 242.915C97.6556 243.705 97.413 244.58 97.1366 245.493C96.6438 247.337 96.2322 249.399 96.0191 251.592C95.8297 253.789 95.8591 255.893 96.0082 257.795C96.1145 258.743 96.1932 259.648 96.357 260.482C96.4326 260.9 96.485 261.308 96.5708 261.692C96.6585 262.076 96.7436 262.444 96.8242 262.798C96.967 263.507 97.1769 264.127 97.3305 264.681C97.479 265.237 97.6409 265.704 97.7798 266.085C97.9001 266.438 97.9986 266.73 98.0799 266.968C98.1452 267.172 98.174 267.281 98.1638 267.286C98.1529 267.29 98.103 267.19 98.0178 266.994C97.9212 266.761 97.8022 266.476 97.6588 266.13C97.5001 265.755 97.3196 265.292 97.1532 264.738C96.981 264.186 96.7545 263.567 96.5958 262.856C96.5074 262.501 96.4153 262.131 96.3193 261.747C96.2258 261.361 96.1663 260.951 96.0844 260.531C95.9078 259.692 95.8169 258.781 95.7017 257.824C95.534 255.905 95.495 253.781 95.6863 251.563C95.9014 249.349 96.3263 247.267 96.8402 245.411C97.1276 244.491 97.3823 243.612 97.7087 242.819C97.8655 242.421 97.9986 242.028 98.1606 241.665C98.325 241.305 98.4825 240.958 98.6342 240.625C98.9196 239.955 99.2556 239.387 99.525 238.876C99.7894 238.362 100.051 237.939 100.276 237.599C100.48 237.285 100.649 237.027 100.786 236.815C100.907 236.637 100.974 236.547 100.984 236.553Z" fill="#263238"/>
<path d="M180.113 251.934C180.116 251.939 180.072 251.971 179.983 252.029C179.876 252.096 179.746 252.178 179.584 252.279C179.206 252.506 178.687 252.818 178.031 253.212C177.69 253.414 177.314 253.637 176.904 253.879C176.485 254.11 176.013 254.33 175.514 254.582C174.507 255.068 173.39 255.686 172.071 256.185C171.419 256.452 170.736 256.732 170.026 257.024C169.312 257.31 168.543 257.53 167.76 257.801C166.203 258.37 164.478 258.775 162.676 259.246C159.041 260.055 154.975 260.647 150.674 260.785C146.37 260.872 142.277 260.492 138.605 259.874C136.78 259.499 135.037 259.184 133.451 258.697C132.655 258.468 131.874 258.287 131.147 258.039C130.422 257.785 129.727 257.541 129.061 257.308C127.718 256.879 126.569 256.32 125.539 255.888C125.028 255.662 124.545 255.466 124.114 255.258C123.693 255.037 123.305 254.834 122.954 254.65C122.278 254.29 121.744 254.007 121.355 253.799C121.188 253.707 121.053 253.632 120.943 253.571C120.852 253.518 120.806 253.488 120.809 253.483C120.811 253.478 120.863 253.498 120.96 253.541C121.074 253.594 121.214 253.66 121.387 253.74C121.782 253.934 122.325 254.199 123.012 254.534C123.366 254.709 123.756 254.903 124.182 255.114C124.615 255.314 125.1 255.499 125.613 255.716C126.647 256.131 127.798 256.673 129.14 257.085C129.805 257.311 130.5 257.546 131.224 257.792C131.951 258.033 132.729 258.206 133.522 258.429C135.104 258.903 136.841 259.205 138.657 259.571C142.313 260.169 146.384 260.537 150.664 260.451C154.941 260.314 158.986 259.733 162.606 258.945C164.4 258.485 166.119 258.092 167.673 257.537C168.454 257.273 169.223 257.059 169.935 256.781C170.646 256.498 171.327 256.226 171.979 255.966C173.298 255.484 174.419 254.883 175.43 254.414C175.931 254.17 176.406 253.96 176.829 253.738C177.243 253.505 177.622 253.291 177.967 253.097C178.635 252.727 179.163 252.434 179.548 252.22C179.716 252.13 179.853 252.058 179.964 251.998C180.06 251.952 180.11 251.929 180.113 251.934Z" fill="#263238"/>
<path d="M186.787 116.485C186.79 116.489 186.744 116.532 186.65 116.611C186.541 116.701 186.403 116.815 186.23 116.957C185.838 117.27 185.292 117.707 184.597 118.261C183.173 119.387 181.114 121.02 178.513 122.965C175.906 124.899 172.748 127.152 168.993 129.258C167.098 130.27 165.079 131.305 162.861 132.08C160.65 132.859 158.274 133.457 155.784 133.653C150.784 133.992 146.044 132.725 142.188 130.825C140.259 129.859 138.52 128.776 136.936 127.702C135.373 126.599 133.947 125.532 132.685 124.51C130.151 122.476 128.166 120.755 126.787 119.576C126.114 118.995 125.585 118.537 125.205 118.209C125.038 118.06 124.905 117.941 124.799 117.847C124.709 117.764 124.664 117.72 124.668 117.715C124.672 117.711 124.724 117.747 124.821 117.821C124.933 117.909 125.073 118.019 125.249 118.158C125.638 118.475 126.181 118.915 126.87 119.477C128.275 120.626 130.284 122.32 132.831 124.325C134.101 125.335 135.531 126.386 137.093 127.474C138.675 128.533 140.409 129.6 142.323 130.549C146.15 132.415 150.832 133.653 155.761 133.321C158.213 133.127 160.561 132.54 162.751 131.772C164.949 131.01 166.957 129.988 168.846 128.988C172.589 126.908 175.753 124.682 178.374 122.775C180.989 120.857 183.069 119.253 184.518 118.158C185.229 117.625 185.788 117.205 186.19 116.904C186.371 116.773 186.516 116.667 186.63 116.585C186.73 116.514 186.783 116.48 186.787 116.485Z" fill="#263238"/>
<g opacity="0.24">
<path d="M129.066 257.31C132.099 254.969 136.36 255.537 140.11 256.325C143.859 257.113 147.636 258.395 151.431 257.864C154.29 257.464 156.913 256.057 159.736 255.445C162.558 254.834 165.982 255.286 167.546 257.713C155.13 261.749 141.395 261.606 129.066 257.31Z" fill="black"/>
</g>
<path d="M234.901 239.943L221.118 224.51L220.978 243.269L225.127 255.302L183.897 262.453L182.149 229.922L179.18 204.939C178.817 201.877 180.563 198.956 183.431 197.826L194.778 193.358L210.759 196.29L217.187 198.734C219.886 199.76 222.292 201.433 224.193 203.607L243.545 225.737" fill="#00A0E2"/>
<path d="M220.152 220.819C220.156 220.753 221.059 220.887 222.481 220.655C223.887 220.436 225.832 219.748 227.445 218.264C229.055 216.776 229.898 214.893 230.23 213.508C230.576 212.111 230.517 211.199 230.582 211.201C230.602 211.201 230.634 211.425 230.64 211.835C230.647 212.244 230.607 212.84 230.46 213.561C230.179 214.993 229.343 216.962 227.67 218.509C225.995 220.051 223.964 220.725 222.515 220.889C221.784 220.977 221.187 220.969 220.779 220.929C220.371 220.889 220.15 220.839 220.152 220.819Z" fill="white"/>
<path d="M221.357 242.47C221.454 242.47 221.478 235.97 221.413 227.956C221.347 219.94 221.216 213.443 221.12 213.444C221.023 213.445 220.999 219.943 221.064 227.96C221.129 235.974 221.26 242.471 221.357 242.47Z" fill="#263238"/>
<path d="M219.848 247.239L194.935 237.21C192.926 236.401 191.549 234.522 191.385 232.363L189.562 208.478C189.562 208.478 189.777 198.32 183.432 197.825L179.823 199.247C175.158 201.724 174.002 208.516 174.637 213.761C175.539 221.212 175.915 231.757 176.925 238.224C177.751 243.514 180.781 248.168 185.958 249.53L216.643 256.173L219.848 247.239Z" fill="#00A0E2"/>
<path d="M189.921 212.122C189.932 212.121 189.959 212.31 189.999 212.669C190.039 213.058 190.092 213.583 190.159 214.243C190.287 215.643 190.466 217.614 190.686 220.036C190.897 222.492 191.147 225.401 191.425 228.63C191.492 229.439 191.562 230.267 191.633 231.114C191.707 231.961 191.759 232.828 191.951 233.67C192.134 234.514 192.539 235.305 193.19 235.908C193.836 236.512 194.644 236.955 195.489 237.338C202.358 240.311 208.689 242.765 213.285 244.486C215.567 245.327 217.423 246.011 218.741 246.496C219.363 246.726 219.858 246.908 220.225 247.044C220.562 247.172 220.738 247.244 220.735 247.256C220.731 247.266 220.548 247.215 220.203 247.108C219.831 246.987 219.329 246.824 218.698 246.619C217.394 246.187 215.515 245.54 213.204 244.708C208.581 243.041 202.24 240.624 195.35 237.642C194.494 237.252 193.652 236.796 192.962 236.15C192.266 235.507 191.819 234.626 191.634 233.744C191.435 232.861 191.388 231.987 191.316 231.143C191.249 230.296 191.183 229.467 191.119 228.657C190.868 225.426 190.642 222.514 190.451 220.056C190.275 217.63 190.132 215.656 190.03 214.254C189.989 213.592 189.956 213.066 189.932 212.676C189.913 212.313 189.909 212.123 189.921 212.122Z" fill="#263238"/>
<path d="M175.646 225.106C175.657 225.106 175.673 225.217 175.695 225.427C175.717 225.676 175.744 225.981 175.778 226.349C175.852 227.201 175.952 228.346 176.073 229.739C176.21 231.168 176.383 232.87 176.631 234.75C176.887 236.627 177.19 238.698 177.756 240.801C178.025 241.862 178.402 242.843 178.972 243.685C179.543 244.534 180.178 245.297 180.834 245.972C182.151 247.319 183.557 248.306 184.82 248.962C187.369 250.287 189.222 250.306 189.196 250.395C189.195 250.406 189.084 250.403 188.872 250.387C188.66 250.372 188.346 250.348 187.95 250.268C187.156 250.128 186.014 249.816 184.714 249.172C183.416 248.532 181.97 247.547 180.615 246.187C179.941 245.505 179.29 244.732 178.702 243.867C178.106 243 177.702 241.951 177.436 240.889C176.861 238.754 176.569 236.676 176.327 234.789C176.095 232.9 175.945 231.193 175.839 229.758C175.734 228.323 175.678 227.16 175.649 226.356C175.641 225.986 175.634 225.681 175.629 225.43C175.628 225.218 175.634 225.106 175.646 225.106Z" fill="#263238"/>
<path d="M186.299 241.82C186.265 241.811 186.371 241.278 186.753 240.493C187.13 239.71 187.828 238.696 188.844 237.825C189.864 236.957 190.974 236.426 191.807 236.176C192.643 235.922 193.185 235.901 193.19 235.936C193.2 235.992 192.677 236.095 191.885 236.399C191.093 236.699 190.044 237.242 189.061 238.078C188.082 238.918 187.381 239.869 186.961 240.604C186.537 241.338 186.353 241.839 186.299 241.82Z" fill="#263238"/>
<path d="M191.199 223.656C191.202 223.65 191.256 223.675 191.357 223.725C191.475 223.787 191.622 223.864 191.803 223.959C192.203 224.147 192.786 224.443 193.581 224.713C195.147 225.257 197.601 225.81 200.563 225.309C203.487 224.831 206.888 223.108 209.243 219.917C210.408 218.341 211.311 216.4 211.515 214.273C211.618 213.216 211.532 212.115 211.183 211.079C210.841 210.045 210.216 209.086 209.387 208.335C208.562 207.581 207.538 207.051 206.463 206.914C205.403 206.746 204.267 207.026 203.531 207.737C203.176 208.094 202.955 208.571 202.96 209.063C202.959 209.554 203.147 210.038 203.441 210.432C204.031 211.238 205.025 211.613 205.976 211.754C207.917 212.02 209.824 211.669 211.421 210.975C213.025 210.275 214.336 209.236 215.28 208.089C216.226 206.937 216.809 205.691 217.157 204.562C217.507 203.428 217.614 202.399 217.631 201.565C217.644 200.728 217.556 200.08 217.491 199.643C217.454 199.441 217.424 199.279 217.4 199.148C217.38 199.036 217.373 198.978 217.379 198.977C217.379 198.977 217.732 199.864 217.761 201.565C217.764 202.41 217.675 203.456 217.336 204.615C216.999 205.77 216.42 207.048 215.464 208.238C214.508 209.423 213.174 210.5 211.533 211.228C209.897 211.951 207.945 212.326 205.931 212.058C204.941 211.915 203.856 211.526 203.186 210.623C202.858 210.185 202.639 209.64 202.638 209.063C202.63 208.484 202.894 207.915 203.301 207.507C204.136 206.699 205.37 206.411 206.508 206.586C207.66 206.732 208.745 207.297 209.612 208.088C210.484 208.879 211.139 209.884 211.499 210.974C211.864 212.062 211.951 213.208 211.842 214.303C211.624 216.506 210.689 218.492 209.491 220.099C207.069 223.352 203.586 225.084 200.603 225.542C197.584 226.02 195.105 225.421 193.538 224.834C191.952 224.23 191.199 223.656 191.199 223.656Z" fill="white"/>
<path d="M174.88 217.284C174.865 217.27 175.004 217.084 175.289 216.774C175.576 216.467 176.021 216.045 176.635 215.604C177.844 214.694 179.846 213.867 182.146 213.65C183.295 213.528 184.411 213.583 185.394 213.787C186.378 213.991 187.225 214.322 187.897 214.666C188.57 215.008 189.08 215.345 189.419 215.593C189.757 215.842 189.931 215.997 189.919 216.014C189.884 216.066 189.139 215.503 187.795 214.879C186.466 214.243 184.431 213.712 182.181 213.983C179.928 214.197 177.985 214.96 176.769 215.798C175.536 216.619 174.926 217.331 174.88 217.284Z" fill="white"/>
<path d="M178.864 200.206C178.915 200.15 179.504 200.965 180.881 201.672C181.561 202.025 182.441 202.321 183.447 202.424C184.45 202.531 185.584 202.416 186.661 201.981C187.731 201.528 188.614 200.808 189.249 200.023C189.888 199.239 190.301 198.408 190.533 197.677C191.008 196.204 190.848 195.212 190.924 195.215C190.942 195.213 190.992 195.452 191.008 195.894C191.026 196.335 190.973 196.981 190.759 197.746C190.548 198.511 190.143 199.386 189.489 200.216C188.84 201.045 187.92 201.811 186.789 202.289C185.651 202.749 184.459 202.857 183.414 202.73C182.366 202.604 181.46 202.271 180.77 201.88C180.078 201.489 179.584 201.069 179.285 200.745C178.985 200.422 178.85 200.217 178.864 200.206Z" fill="white"/>
<path d="M200.574 239.481C200.562 239.48 200.58 239.318 200.626 239.009C200.696 238.708 200.795 238.251 201.067 237.72C201.57 236.647 202.821 235.303 204.796 234.483C206.744 233.608 209.422 233.439 212.121 234.221C213.438 234.613 214.949 235.096 215.938 236.383C216.421 237.015 216.587 237.957 216.219 238.725C215.866 239.497 215.172 240.029 214.443 240.4C213.7 240.763 212.894 240.969 212.085 240.985C211.283 241 210.446 240.801 209.82 240.283C209.189 239.772 208.856 238.983 208.807 238.23C208.748 237.471 208.903 236.738 209.146 236.072C210.208 233.407 212.355 231.713 214.281 230.875C216.238 230.018 218.011 229.928 219.181 230.033C220.361 230.155 220.972 230.41 220.972 230.41C220.962 230.454 220.338 230.242 219.171 230.162C218.015 230.098 216.28 230.224 214.378 231.09C213.434 231.521 212.46 232.14 211.582 232.987C210.709 233.83 209.923 234.911 209.435 236.178C209.206 236.814 209.067 237.51 209.125 238.205C209.175 238.897 209.473 239.584 210.028 240.032C210.578 240.486 211.331 240.671 212.08 240.655C212.834 240.641 213.599 240.445 214.296 240.105C214.982 239.757 215.616 239.257 215.918 238.591C216.232 237.929 216.1 237.144 215.675 236.575C215.253 235.994 214.636 235.575 214.008 235.252C213.375 234.932 212.697 234.715 212.039 234.519C209.396 233.739 206.8 233.879 204.889 234.704C202.949 235.478 201.711 236.754 201.184 237.783C200.637 238.813 200.621 239.494 200.574 239.481Z" fill="white"/>
<path d="M183.988 248.475C183.978 248.412 184.938 248.331 186.377 247.818C187.808 247.317 189.714 246.29 191.275 244.564C192.835 242.838 193.665 240.837 194.02 239.364C194.385 237.88 194.369 236.918 194.433 236.921C194.453 236.921 194.476 237.16 194.468 237.593C194.462 238.026 194.406 238.654 194.249 239.416C193.947 240.932 193.13 243.009 191.522 244.788C189.913 246.566 187.93 247.588 186.452 248.041C185.71 248.273 185.09 248.392 184.66 248.442C184.23 248.494 183.99 248.495 183.988 248.475Z" fill="white"/>
<path d="M175.914 229.908C175.911 229.897 176.014 229.855 176.215 229.788C176.416 229.722 176.714 229.629 177.105 229.531C177.882 229.343 179.042 229.085 180.498 229.186C181.222 229.243 182.016 229.408 182.805 229.756C183.59 230.104 184.375 230.65 184.957 231.445C185.528 232.239 185.879 233.272 185.794 234.349C185.754 234.886 185.59 235.426 185.3 235.908C185.008 236.382 184.57 236.813 183.994 237C183.426 237.178 182.76 237.087 182.311 236.667C181.868 236.238 181.757 235.637 181.73 235.114C181.69 234.052 181.92 233.034 182.317 232.15C183.11 230.364 184.584 229.191 185.951 228.703C187.327 228.193 188.548 228.231 189.339 228.367C189.738 228.437 190.04 228.525 190.24 228.596C190.439 228.671 190.541 228.715 190.537 228.726C190.527 228.758 190.109 228.593 189.32 228.495C188.539 228.401 187.353 228.403 186.036 228.922C184.728 229.422 183.342 230.56 182.598 232.275C182.225 233.121 182.015 234.095 182.056 235.098C182.081 235.587 182.196 236.101 182.539 236.426C182.876 236.746 183.425 236.83 183.893 236.682C184.367 236.529 184.754 236.159 185.017 235.734C185.277 235.302 185.43 234.814 185.468 234.322C185.551 233.335 185.233 232.367 184.707 231.624C184.172 230.879 183.436 230.35 182.69 230.007C181.94 229.663 181.177 229.49 180.477 229.42C179.065 229.291 177.912 229.507 177.133 229.656C176.35 229.818 175.921 229.933 175.914 229.908Z" fill="white"/>
<g opacity="0.3">
<path d="M212.688 244.392C210.025 242.887 207.418 241.731 204.633 240.466C201.847 239.2 199.119 237.575 197.296 235.118C193.858 230.483 194.25 223.795 190.73 219.223C190.96 222.298 191.19 225.372 191.42 228.448C191.63 231.266 191.198 234.053 193.014 235.968C194.543 237.581 197.525 238.818 199.636 239.514C203.878 240.914 208.446 242.993 212.688 244.392Z" fill="black"/>
</g>
<path d="M255.978 279.496C255.978 279.496 276.823 285.265 277.659 285.559C278.915 286.002 278.704 290.602 276.75 290.53C275.825 290.496 260.739 291.092 258.833 290.973C256.926 290.854 251.176 288.588 251.176 288.588L255.978 279.496Z" fill="#00A0E2"/>
<path d="M264.659 287.45C264.764 287.464 264.905 286.362 265.577 285.212C266.234 284.052 267.116 283.377 267.051 283.293C267.015 283.213 265.979 283.8 265.275 285.038C264.559 286.268 264.571 287.459 264.659 287.45Z" fill="#263238"/>
<path d="M262.49 286.464C262.593 286.482 262.803 285.496 263.359 284.408C263.903 283.313 264.569 282.557 264.494 282.485C264.436 282.417 263.622 283.098 263.047 284.251C262.463 285.398 262.401 286.458 262.49 286.464Z" fill="#263238"/>
<path d="M260.45 285.919C260.555 285.913 260.475 284.871 260.938 283.717C261.381 282.554 262.146 281.843 262.073 281.767C262.032 281.688 261.097 282.332 260.613 283.59C260.116 284.841 260.366 285.949 260.45 285.919Z" fill="#263238"/>
<path d="M260.818 283.226C260.855 283.236 261.04 282.653 261.041 281.675C261.04 281.188 260.984 280.605 260.83 279.976C260.754 279.661 260.651 279.336 260.52 279.008C260.453 278.843 260.375 278.652 260.186 278.497C259.991 278.322 259.637 278.359 259.47 278.532C259.279 278.699 259.219 278.934 259.192 279.122C259.171 279.313 259.161 279.492 259.165 279.672C259.17 280.031 259.216 280.375 259.293 280.692C259.448 281.329 259.696 281.863 259.935 282.286C260.421 283.132 260.842 283.564 260.871 283.541C260.918 283.508 260.57 283.022 260.154 282.172C259.949 281.747 259.735 281.225 259.607 280.623C259.543 280.322 259.507 280.001 259.507 279.67C259.516 279.35 259.511 278.95 259.699 278.795C259.798 278.713 259.887 278.708 259.974 278.772C260.067 278.843 260.143 278.985 260.203 279.137C260.332 279.448 260.437 279.757 260.518 280.056C260.682 280.655 260.762 281.213 260.794 281.684C260.856 282.628 260.762 283.218 260.818 283.226Z" fill="#263238"/>
<path d="M260.792 283.014C260.802 282.976 260.299 282.803 259.448 282.797C259.024 282.796 258.516 282.84 257.969 282.978C257.698 283.051 257.409 283.121 257.117 283.292C256.831 283.436 256.532 283.833 256.646 284.244C256.735 284.632 257.067 284.903 257.396 284.988C257.729 285.081 258.05 285.048 258.331 284.986C258.904 284.854 259.348 284.573 259.686 284.32C260.354 283.796 260.68 283.395 260.655 283.366C260.618 283.322 260.223 283.665 259.544 284.118C259.202 284.336 258.775 284.572 258.266 284.671C258.012 284.72 257.739 284.735 257.492 284.661C257.247 284.593 257.043 284.406 256.985 284.165C256.925 283.932 257.066 283.719 257.295 283.583C257.518 283.445 257.794 283.365 258.051 283.288C258.567 283.141 259.049 283.073 259.456 283.043C260.272 282.986 260.783 283.07 260.792 283.014Z" fill="#263238"/>
<path d="M267.865 287.674C267.968 287.663 267.866 286.771 268.276 285.794C268.666 284.808 269.362 284.242 269.297 284.162C269.262 284.077 268.39 284.571 267.953 285.662C267.503 286.748 267.781 287.711 267.865 287.674Z" fill="#263238"/>
<path d="M253.321 288.635C253.312 288.658 253.598 288.791 254.127 289.015C254.663 289.217 255.446 289.501 256.446 289.734C258.44 290.236 261.282 290.521 264.405 290.488C267.529 290.453 270.343 290.311 272.385 290.229C273.351 290.178 274.161 290.135 274.8 290.101C275.37 290.063 275.685 290.031 275.685 290.006C275.684 289.982 275.368 289.969 274.796 289.965C274.156 289.97 273.345 289.976 272.378 289.983C270.266 290.024 267.482 290.079 264.403 290.139C261.295 290.171 258.487 289.928 256.501 289.493C254.508 289.083 253.345 288.571 253.321 288.635Z" fill="#263238"/>
<path d="M252.704 289.11C252.732 289.158 253.302 288.825 254.265 288.403C255.217 287.995 256.644 287.505 258.21 287.747C259.78 287.988 260.894 289.042 261.619 289.775C262.35 290.534 262.778 291.038 262.82 291.002C262.852 290.976 262.496 290.422 261.8 289.607C261.448 289.205 261.002 288.738 260.418 288.315C259.84 287.891 259.097 287.53 258.264 287.403C256.584 287.145 255.103 287.707 254.161 288.179C253.205 288.669 252.683 289.076 252.704 289.11Z" fill="#263238"/>
<path d="M233.851 273.741C233.851 273.741 214.126 286.656 213.419 287.19C212.356 287.993 213.575 291.815 215.415 291.153C216.285 290.84 232.837 286.236 234.617 285.543C236.397 284.851 241.188 280.945 241.188 280.945L233.851 273.741Z" fill="#00A0E2"/>
<path d="M227.996 283.957C228.082 283.938 227.732 282.8 226.676 281.845C225.629 280.88 224.464 280.635 224.454 280.723C224.418 280.822 225.463 281.197 226.441 282.103C227.431 282.995 227.9 284.002 227.996 283.957Z" fill="#263238"/>
<path d="M229.764 282.357C229.847 282.325 229.466 281.334 228.561 280.417C227.664 279.494 226.681 279.092 226.647 279.175C226.597 279.265 227.461 279.784 228.312 280.661C229.172 281.53 229.673 282.405 229.764 282.357Z" fill="#263238"/>
<path d="M231.539 281.218C231.629 281.221 231.53 280.09 230.677 279.049C229.834 277.998 228.748 277.668 228.732 277.756C228.686 277.851 229.631 278.295 230.406 279.268C231.197 280.228 231.437 281.244 231.539 281.218Z" fill="#263238"/>
<path d="M230.371 278.765C230.423 278.74 230.153 278.206 229.925 277.289C229.813 276.83 229.719 276.275 229.693 275.654C229.679 275.344 229.686 275.018 229.715 274.682C229.726 274.52 229.756 274.361 229.822 274.265C229.885 274.177 229.971 274.155 230.092 274.204C230.317 274.294 230.434 274.677 230.54 274.979C230.641 275.294 230.703 275.611 230.734 275.917C230.794 276.529 230.75 277.092 230.684 277.559C230.545 278.495 230.36 279.064 230.415 279.081C230.451 279.095 230.72 278.555 230.927 277.601C231.026 277.126 231.101 276.541 231.054 275.888C231.031 275.562 230.971 275.22 230.867 274.877C230.816 274.703 230.752 274.536 230.673 274.36C230.591 274.189 230.463 273.983 230.23 273.883C230.017 273.768 229.669 273.841 229.537 274.066C229.404 274.272 229.388 274.477 229.374 274.654C229.349 275.006 229.35 275.348 229.372 275.671C229.417 276.317 229.541 276.89 229.687 277.355C229.986 278.287 230.339 278.785 230.371 278.765Z" fill="#263238"/>
<path d="M230.333 278.555C230.358 278.606 230.82 278.371 231.615 278.178C232.011 278.083 232.491 278.001 233.028 277.985C233.295 277.98 233.583 277.972 233.838 278.036C234.097 278.096 234.296 278.256 234.31 278.496C234.327 278.743 234.189 278.984 233.976 279.122C233.764 279.268 233.499 279.337 233.243 279.367C232.728 279.427 232.248 279.333 231.857 279.228C231.072 279.003 230.592 278.796 230.57 278.85C230.555 278.885 230.987 279.168 231.784 279.465C232.182 279.603 232.691 279.736 233.276 279.688C233.563 279.662 233.88 279.595 234.168 279.406C234.456 279.225 234.69 278.866 234.657 278.469C234.641 278.043 234.235 277.756 233.919 277.705C233.589 277.63 233.292 277.651 233.012 277.664C232.449 277.699 231.951 277.811 231.548 277.941C230.738 278.204 230.312 278.522 230.333 278.555Z" fill="#263238"/>
<path d="M217.93 290.433C217.952 290.463 218.262 290.233 218.413 289.669C218.578 289.118 218.474 288.27 218.043 287.528C217.837 287.153 217.601 286.829 217.382 286.543C217.167 286.256 216.943 285.997 216.713 285.824C216.485 285.646 216.246 285.566 216.082 285.56C215.917 285.553 215.833 285.594 215.836 285.614C215.837 285.669 216.189 285.642 216.553 286.013C216.738 286.189 216.923 286.437 217.122 286.732C217.325 287.025 217.545 287.345 217.737 287.695C218.137 288.391 218.256 289.11 218.171 289.619C218.1 290.129 217.884 290.399 217.93 290.433Z" fill="#263238"/>
<path d="M225.009 285.142C225.101 285.152 225.073 284.15 224.315 283.252C223.567 282.345 222.586 282.14 222.579 282.231C222.542 282.327 223.376 282.655 224.048 283.475C224.735 284.282 224.908 285.162 225.009 285.142Z" fill="#263238"/>
<path d="M239.161 281.641C239.143 281.62 238.841 281.843 238.294 282.236C237.739 282.62 236.924 283.158 235.862 283.726C234.8 284.296 233.491 284.887 231.999 285.446C230.505 286.003 228.83 286.528 227.058 287.041C223.51 288.063 220.297 288.997 217.979 289.694C216.868 290.035 215.945 290.319 215.238 290.536C214.593 290.742 214.24 290.867 214.246 290.89C214.253 290.913 214.619 290.833 215.275 290.666C215.99 290.477 216.923 290.23 218.047 289.932C220.383 289.295 223.603 288.399 227.156 287.376C228.93 286.861 230.613 286.324 232.112 285.746C233.611 285.166 234.924 284.545 235.981 283.942C237.039 283.34 237.841 282.765 238.374 282.344C238.902 281.915 239.174 281.657 239.161 281.641Z" fill="#263238"/>
<path d="M239.89 281.907C239.901 281.868 239.279 281.639 238.219 281.463C237.177 281.299 235.596 281.214 234.073 281.969C233.319 282.343 232.72 282.913 232.299 283.493C231.871 284.073 231.587 284.653 231.374 285.144C230.958 286.131 230.788 286.767 230.825 286.782C230.877 286.803 231.131 286.193 231.597 285.248C232.066 284.33 232.806 282.986 234.23 282.28C235.648 281.574 237.156 281.607 238.187 281.707C239.233 281.817 239.878 281.962 239.89 281.907Z" fill="#263238"/>
<path d="M274.844 242.244C274.844 242.244 280.761 244.357 280.785 250.993C280.833 263.702 255.105 277.711 255.105 277.711L220.869 255.026L218.723 254.158C218.723 254.158 264.94 236.797 274.844 242.244Z" fill="#263238"/>
<path d="M238.211 266.484C238.226 266.503 238.543 266.287 239.103 265.879C239.664 265.473 240.465 264.869 241.445 264.111C243.405 262.596 246.072 260.448 248.941 257.986C251.81 255.522 254.336 253.21 256.13 251.501C257.027 250.647 257.745 249.947 258.232 249.454C258.72 248.962 258.981 248.681 258.965 248.664C258.948 248.647 258.655 248.894 258.139 249.355C257.579 249.86 256.846 250.522 255.963 251.32C254.127 252.981 251.579 255.26 248.714 257.721C245.849 260.18 243.211 262.355 241.291 263.918C240.368 264.671 239.603 265.295 239.02 265.772C238.485 266.213 238.197 266.465 238.211 266.484Z" fill="#455A64"/>
<path d="M265.18 246.995C265.192 246.91 263.665 246.76 261.88 247.295C260.091 247.816 258.89 248.77 258.947 248.835C259.004 248.926 260.252 248.13 261.98 247.63C263.701 247.112 265.181 247.102 265.18 246.995Z" fill="#455A64"/>
<path d="M262.228 244.991C262.198 244.909 261.1 245.391 260.199 246.518C259.287 247.637 259.046 248.811 259.134 248.824C259.234 248.858 259.608 247.792 260.471 246.737C261.319 245.672 262.283 245.082 262.228 244.991Z" fill="#455A64"/>
<path d="M276.725 285.235C276.743 285.195 276.317 285.113 275.843 285.502C275.377 285.875 274.981 286.62 274.853 287.49C274.725 288.365 274.919 289.17 275.166 289.681C275.408 290.201 275.674 290.445 275.705 290.421C275.751 290.388 275.564 290.099 275.395 289.589C275.221 289.085 275.081 288.342 275.199 287.539C275.316 286.74 275.644 286.05 276.009 285.685C276.371 285.305 276.732 285.29 276.725 285.235Z" fill="#263238"/>
<path d="M266.967 221.481L254.773 252.392L202.269 253.247L201.297 250.407L219.698 249.739L228.541 222.319L266.967 221.481Z" fill="#455A64"/>
<path d="M242.448 234.863C243.122 234.407 244.367 234.59 244.973 235.133C245.579 235.676 245.775 236.616 245.467 237.369C245.159 238.123 244.383 238.651 243.57 238.694C242.707 238.74 241.806 238.2 241.565 237.37C241.324 236.54 241.592 235.301 242.448 234.863Z" fill="#EBEBEB"/>
<path d="M258.345 279.256C258.345 279.256 209.973 247.527 207.992 246.867C206.011 246.206 201.224 243.07 196.438 244.39C191.651 245.711 187.359 250.003 185.214 256.275C183.988 259.858 183.408 265.972 183.137 270.557C182.812 276.039 184.51 281.505 188.095 285.665C189.727 287.557 191.74 289.204 194.127 289.947C194.631 290.104 195.153 290.239 195.69 290.355C204.836 292.338 214.235 288.232 219.374 280.412L220.502 278.694C220.502 278.694 252.145 290.319 252.641 290.154L258.345 279.256Z" fill="#263238"/>
<path d="M198.5 270.523C198.5 270.523 198.588 270.568 198.766 270.64C198.957 270.716 199.219 270.82 199.557 270.954C200.271 271.229 201.301 271.625 202.624 272.135C205.315 273.149 209.196 274.61 214.021 276.428C218.862 278.234 224.661 280.381 231.167 282.749C237.674 285.114 244.885 287.711 252.585 290.318L252.725 290.365L252.794 290.234C254.003 287.925 255.278 285.489 256.573 283.017C257.233 281.756 257.888 280.505 258.499 279.336L258.574 279.194L258.44 279.109C243.914 269.889 230.92 261.639 221.541 255.686C216.858 252.732 213.08 250.349 210.458 248.694C209.159 247.884 208.148 247.253 207.448 246.816C207.112 246.61 206.851 246.451 206.662 246.335C206.484 246.228 206.389 246.182 206.389 246.182C206.389 246.182 206.472 246.248 206.644 246.365C206.829 246.487 207.084 246.656 207.412 246.873C208.104 247.323 209.105 247.972 210.389 248.806C212.997 250.481 216.756 252.896 221.414 255.888C230.776 261.864 243.75 270.145 258.251 279.401L258.192 279.175C257.58 280.343 256.925 281.595 256.264 282.855C254.971 285.327 253.696 287.764 252.488 290.073L252.696 289.99C244.999 287.389 237.785 284.806 231.272 282.459C224.77 280.093 218.961 277.979 214.102 276.21C209.262 274.434 205.368 273.007 202.669 272.017C201.336 271.532 200.3 271.154 199.581 270.893C199.239 270.772 198.972 270.678 198.778 270.609C198.595 270.546 198.5 270.523 198.5 270.523Z" fill="#455A64"/>
<path d="M203.524 157.848C204.349 155.618 206.172 154.649 208.482 154.09C210.793 153.531 213.364 154.193 215.117 155.799C216.289 156.873 217.149 158.357 218.596 159.014C220.981 160.095 224.036 158.515 226.296 159.836C227.634 160.618 228.291 162.398 227.782 163.862C227.272 165.325 225.653 166.313 224.118 166.096C225.672 166.83 225.962 169.168 224.892 170.513C223.822 171.858 221.844 172.222 220.191 171.754C218.537 171.286 217.164 170.132 215.996 168.872C214.828 167.612 213.805 166.214 212.541 165.05C211.277 163.887 209.699 162.95 207.982 162.886C205.657 162.799 203.513 164.361 202.292 166.342C201.072 168.322 200.617 170.67 200.277 172.971C199.937 175.272 199.68 177.62 198.793 179.77C198.688 180.022 198.539 180.303 198.272 180.358C197.887 180.439 197.604 180.011 197.449 179.648C195.7 175.551 194.768 171.108 194.72 166.653C194.693 164.066 194.983 161.645 196.589 159.616C198.196 157.588 201.901 156.326 203.524 157.848Z" fill="#263238"/>
<path d="M198.067 168.173L194.511 194.014C193.906 198.408 197.102 202.415 201.521 202.802C205.644 203.163 209.326 200.22 209.886 196.118C210.152 194.172 210.378 192.55 210.418 192.352C210.418 192.352 217.082 192.639 218.453 186.193C219.115 183.078 219.957 176.551 220.651 170.637C221.396 164.287 217.131 158.431 210.86 157.178L210.237 157.053C203.435 156.103 198.828 161.348 198.067 168.173Z" fill="#FFBE9D"/>
<path d="M210.45 192.261C210.45 192.261 206.3 191.777 202.504 188.184C202.504 188.184 203.566 193.232 210.13 193.938L210.45 192.261Z" fill="#EB996E"/>
<path d="M217.903 174.591C217.823 175.081 217.341 175.418 216.827 175.344C216.314 175.27 215.962 174.813 216.043 174.322C216.123 173.831 216.605 173.494 217.118 173.568C217.631 173.642 217.983 174.1 217.903 174.591Z" fill="#263238"/>
<path d="M218.63 173.532C218.492 173.63 217.896 172.973 216.902 172.777C215.913 172.567 215.082 172.933 214.999 172.789C214.957 172.725 215.117 172.531 215.48 172.363C215.838 172.195 216.416 172.078 217.034 172.204C217.652 172.331 218.126 172.663 218.379 172.956C218.638 173.251 218.697 173.49 218.63 173.532Z" fill="#263238"/>
<path d="M208.099 172.982C208.019 173.473 207.537 173.81 207.023 173.735C206.51 173.661 206.158 173.204 206.238 172.713C206.318 172.223 206.8 171.885 207.313 171.959C207.827 172.033 208.179 172.491 208.099 172.982Z" fill="#263238"/>
<path d="M208.834 171.767C208.695 171.864 208.099 171.208 207.106 171.012C206.117 170.802 205.286 171.167 205.202 171.024C205.16 170.959 205.318 170.766 205.683 170.598C206.042 170.431 206.619 170.314 207.237 170.44C207.854 170.567 208.329 170.899 208.582 171.191C208.84 171.486 208.901 171.725 208.834 171.767Z" fill="#263238"/>
<path d="M210.965 179.852C210.971 179.794 211.61 179.811 212.636 179.883C212.894 179.907 213.145 179.905 213.222 179.74C213.318 179.569 213.267 179.274 213.203 178.955C213.087 178.294 212.966 177.601 212.839 176.874C212.347 173.917 212.045 171.507 212.164 171.487C212.283 171.469 212.779 173.85 213.271 176.807C213.386 177.535 213.497 178.229 213.601 178.893C213.639 179.2 213.739 179.56 213.534 179.914C213.428 180.09 213.214 180.191 213.043 180.202C212.87 180.219 212.727 180.193 212.6 180.175C211.583 180.029 210.958 179.909 210.965 179.852Z" fill="#263238"/>
<path d="M207.907 179.954C208.07 179.977 207.857 181.055 208.627 182.005C209.394 182.957 210.568 183.065 210.546 183.217C210.548 183.287 210.249 183.375 209.761 183.291C209.282 183.213 208.618 182.921 208.147 182.34C207.678 181.758 207.562 181.085 207.613 180.635C207.661 180.176 207.835 179.934 207.907 179.954Z" fill="#263238"/>
<path d="M209.868 167.927C209.716 168.177 208.75 167.851 207.557 167.759C206.366 167.642 205.358 167.796 205.252 167.523C205.206 167.393 205.421 167.172 205.853 166.986C206.282 166.801 206.932 166.673 207.647 166.734C208.362 166.798 208.98 167.036 209.369 167.294C209.763 167.552 209.936 167.807 209.868 167.927Z" fill="#263238"/>
<path d="M218.841 170.586C218.621 170.776 217.984 170.406 217.163 170.23C216.349 170.026 215.614 170.078 215.501 169.81C215.453 169.681 215.608 169.477 215.955 169.325C216.297 169.172 216.834 169.098 217.396 169.228C217.957 169.359 218.406 169.661 218.646 169.949C218.891 170.239 218.94 170.491 218.841 170.586Z" fill="#263238"/>
<path d="M197.64 173.062C197.54 172.992 193.463 170.862 192.721 175.308C191.98 179.753 196.596 179.581 196.625 179.455C196.655 179.329 197.64 173.062 197.64 173.062Z" fill="#FFBE9D"/>
<path d="M195.546 177.544C195.529 177.527 195.46 177.586 195.319 177.624C195.182 177.661 194.956 177.665 194.738 177.539C194.297 177.288 194.026 176.477 194.138 175.672C194.195 175.265 194.344 174.894 194.54 174.599C194.73 174.296 194.979 174.104 195.222 174.102C195.466 174.087 195.61 174.256 195.644 174.39C195.683 174.525 195.639 174.609 195.662 174.62C195.673 174.634 195.769 174.562 195.764 174.372C195.76 174.28 195.726 174.167 195.635 174.064C195.543 173.96 195.394 173.889 195.226 173.88C194.879 173.847 194.518 174.11 194.302 174.434C194.067 174.757 193.889 175.172 193.826 175.628C193.705 176.529 194.024 177.444 194.636 177.736C194.935 177.87 195.212 177.82 195.363 177.737C195.521 177.651 195.561 177.555 195.546 177.544Z" fill="#EB996E"/>
<path d="M222.288 169.57C219.29 169.758 216.237 168.4 214.371 166.046C213.065 164.399 212.235 162.241 210.387 161.241C209.143 160.567 207.612 160.56 206.263 160.988C204.915 161.416 203.726 162.244 202.662 163.177C203.255 166.71 201.683 170.208 200.152 173.447C199.983 173.804 199.789 174.188 199.434 174.363C198.831 174.661 198.111 174.19 197.751 173.623C197.175 172.714 197.107 171.579 197.128 170.503C197.177 168.051 197.607 165.587 198.603 163.346C199.598 161.105 201.18 159.095 203.251 157.78C205.838 156.138 209.097 155.669 212.092 156.316C215.087 156.962 217.807 158.679 219.844 160.969C220.789 162.031 221.611 163.251 221.932 164.636" fill="#263238"/>
<path d="M43.174 273.824C43.1682 273.821 43.206 273.729 43.286 273.554C43.3756 273.363 43.4952 273.106 43.6488 272.781C43.9567 272.098 44.3573 271.063 44.7144 269.686C45.4197 266.934 45.6655 262.728 44.6236 257.733C44.1397 255.232 43.3596 252.549 42.4066 249.705C41.4684 246.856 40.3784 243.832 39.4882 240.564C38.6082 237.304 37.9132 233.765 38.0469 230.055C38.182 226.338 39.2821 222.627 40.493 218.934C41.7007 215.234 42.95 211.618 43.3244 207.981C43.7474 204.351 42.9704 200.786 41.3167 197.866C39.7148 194.914 37.6994 192.39 36.1909 189.776C34.6588 187.17 33.7007 184.49 33.11 181.998C31.965 176.973 32.3663 172.739 32.9148 169.949C33.5093 167.144 34.1724 165.693 34.1724 165.693C34.1788 165.696 34.1532 165.791 34.0981 165.976C34.0354 166.178 33.9509 166.448 33.8434 166.792C33.6213 167.509 33.3346 168.58 33.062 169.978C32.5608 172.762 32.2069 176.967 33.3749 181.937C33.9772 184.401 34.9397 187.046 36.4661 189.616C37.9708 192.2 39.9951 194.714 41.629 197.699C43.318 200.652 44.1301 204.332 43.6994 208.02C43.3231 211.718 42.0642 215.359 40.8591 219.053C39.6488 222.744 38.5615 226.415 38.4239 230.07C38.2869 233.723 38.964 237.229 39.8306 240.473C40.7061 243.725 41.7832 246.749 42.71 249.606C43.6508 252.459 44.4213 255.163 44.8904 257.682C45.9048 262.715 45.6156 266.962 44.8597 269.723C44.4776 271.106 44.0514 272.139 43.7192 272.814C43.5516 273.134 43.4197 273.386 43.3212 273.573C43.229 273.742 43.1797 273.827 43.174 273.824Z" fill="#263238"/>
<path d="M38.238 192.356C38.238 192.356 35.175 182.561 40.6694 176.827C40.862 176.625 41.2018 176.72 41.2518 176.995C41.5449 178.612 41.9116 183.538 38.238 192.356Z" fill="#00A0E2"/>
<path d="M40.0745 180.09C40.1263 180.1 40.0386 180.789 39.8684 181.897C39.6674 183.141 39.4306 184.603 39.1695 186.217C38.9135 187.831 38.6812 189.292 38.4841 190.537C38.3164 191.643 38.2159 192.329 38.1596 192.324C38.1103 192.32 38.1148 191.623 38.2146 190.503C38.3157 189.384 38.5135 187.845 38.7906 186.155C39.0671 184.465 39.3615 182.943 39.6015 181.847C39.8402 180.75 40.022 180.08 40.0745 180.09Z" fill="#263238"/>
<path d="M41.8359 215.456C41.8359 215.456 43.7092 205.367 51.2471 202.867C51.5121 202.779 51.7675 203.022 51.683 203.288C51.1863 204.855 49.2062 209.381 41.8359 215.456Z" fill="#00A0E2"/>
<path d="M49.1947 205.473C49.2357 205.507 48.8363 206.075 48.1675 206.974C47.4072 207.98 46.515 209.161 45.5301 210.466C44.5483 211.773 43.66 212.956 42.9035 213.964C42.2379 214.863 41.8283 215.422 41.781 215.392C41.7387 215.366 42.069 214.752 42.6808 213.809C43.2939 212.867 44.188 211.598 45.2235 210.234C46.2578 208.87 47.2306 207.663 47.955 206.806C48.6789 205.948 49.1538 205.439 49.1947 205.473Z" fill="#263238"/>
<path d="M39.8033 240.768C39.8033 240.768 38.6654 230.569 45.1531 225.988C45.3809 225.828 45.6958 225.986 45.6926 226.265C45.6715 227.908 45.0916 232.814 39.8033 240.768Z" fill="#00A0E2"/>
<path d="M43.9425 229.078C43.9917 229.097 43.7741 229.757 43.3953 230.812C42.9601 231.995 42.4493 233.385 41.8849 234.92C41.3255 236.456 40.8193 237.846 40.3879 239.029C40.0122 240.083 39.7825 240.737 39.7281 240.722C39.6801 240.708 39.8183 240.025 40.1293 238.945C40.4423 237.866 40.9293 236.392 41.5245 234.786C42.1185 233.181 42.6977 231.743 43.1425 230.712C43.5866 229.682 43.8932 229.058 43.9425 229.078Z" fill="#263238"/>
<path d="M45.4766 266.228C45.4766 266.228 44.7048 255.995 51.3518 251.649C51.5854 251.497 51.8946 251.666 51.8811 251.944C51.8018 253.586 51.0459 258.468 45.4766 266.228Z" fill="#00A0E2"/>
<path d="M50.0343 254.694C50.083 254.716 49.8417 255.367 49.4257 256.408C48.9483 257.575 48.3883 258.945 47.7694 260.458C47.1556 261.973 46.5995 263.344 46.1259 264.512C45.7124 265.552 45.4603 266.197 45.4065 266.18C45.3591 266.165 45.5211 265.488 45.8711 264.419C46.2225 263.351 46.7627 261.897 47.4148 260.313C48.0657 258.729 48.6968 257.313 49.1774 256.299C49.6568 255.285 49.9857 254.672 50.0343 254.694Z" fill="#263238"/>
<path d="M33.8375 183.75C33.8375 183.75 24.7412 179 24.5626 171.06C24.5562 170.781 24.8634 170.608 25.0932 170.767C26.4448 171.701 30.1914 174.922 33.8375 183.75Z" fill="#00A0E2"/>
<path d="M26.453 173.787C26.4971 173.758 26.9227 174.306 27.5864 175.21C28.325 176.231 29.1928 177.431 30.1509 178.756C31.1128 180.078 31.9832 181.274 32.7243 182.293C33.3887 183.193 33.8034 183.749 33.7605 183.785C33.7227 183.818 33.2331 183.322 32.5106 182.461C31.7899 181.598 30.8395 180.371 29.8392 178.981C28.8383 177.591 27.9691 176.308 27.3624 175.364C26.7557 174.42 26.4088 173.817 26.453 173.787Z" fill="#263238"/>
<path d="M43.6076 204.785C43.6076 204.785 34.2392 200.595 33.5794 192.681C33.5563 192.403 33.8527 192.212 34.0907 192.356C35.4968 193.207 39.4316 196.194 43.6076 204.785Z" fill="#00A0E2"/>
<path d="M35.6282 195.289C35.6704 195.257 36.1286 195.778 36.8461 196.64C37.6454 197.614 38.5843 198.759 39.6211 200.023C40.6611 201.284 41.6026 202.425 42.4045 203.397C43.1226 204.256 43.5699 204.785 43.5296 204.824C43.4938 204.858 42.9754 204.393 42.2016 203.577C41.4298 202.76 40.407 201.593 39.3242 200.266C38.2406 198.94 37.2954 197.712 36.6323 196.806C35.9686 195.901 35.5859 195.321 35.6282 195.289Z" fill="#263238"/>
<path d="M38.2125 228.247C38.2125 228.247 31.7805 220.251 34.7975 212.905C34.9031 212.647 35.2544 212.612 35.401 212.848C36.2656 214.247 38.4077 218.698 38.2125 228.247Z" fill="#00A0E2"/>
<path d="M35.4378 216.16C35.4903 216.151 35.6606 216.824 35.907 217.918C36.1745 219.15 36.4887 220.596 36.8362 222.194C37.1882 223.79 37.5063 225.235 37.7777 226.466C38.026 227.557 38.1834 228.232 38.129 228.248C38.0817 228.263 37.8314 227.612 37.5146 226.533C37.1998 225.455 36.8202 223.95 36.4612 222.275C36.1002 220.602 35.8186 219.077 35.6407 217.97C35.4622 216.861 35.386 216.17 35.4378 216.16Z" fill="#263238"/>
<path d="M44.5859 255.857C44.5859 255.857 35.2899 251.511 34.7625 243.587C34.744 243.309 35.0435 243.123 35.2797 243.271C36.6717 244.145 40.5558 247.198 44.5859 255.857Z" fill="#00A0E2"/>
<path d="M36.769 246.229C36.8118 246.197 37.2611 246.727 37.9638 247.6C38.7466 248.588 39.6662 249.748 40.6813 251.03C41.7002 252.308 42.6224 253.464 43.4077 254.45C44.111 255.319 44.5494 255.856 44.5085 255.895C44.472 255.929 43.9613 255.455 43.2016 254.626C42.4438 253.797 41.4403 252.612 40.3798 251.268C39.3187 249.924 38.3946 248.679 37.7469 247.764C37.0992 246.847 36.7261 246.26 36.769 246.229Z" fill="#263238"/>
<path d="M63.1005 215.511C63.1094 215.511 63.1133 215.588 63.112 215.737C63.1075 215.915 63.1024 216.131 63.096 216.393C63.0685 217.009 63.032 217.842 62.9859 218.881C62.8662 221.068 62.6992 224.119 62.4989 227.767L62.4982 227.776L62.4957 227.788C61.832 231.502 59.9408 235.618 57.4006 239.614C55.537 242.557 53.5837 245.234 51.8992 247.723C50.2032 250.205 48.7722 252.503 47.7744 254.54C46.7702 256.574 46.1866 258.322 45.8448 259.544C45.6816 260.157 45.5587 260.635 45.4877 260.962C45.4115 261.288 45.3648 261.458 45.3514 261.456C45.3386 261.454 45.359 261.279 45.4115 260.948C45.4576 260.615 45.5574 260.13 45.6995 259.507C45.9984 258.267 46.5482 256.489 47.5293 254.423C48.504 252.353 49.9216 250.023 51.6048 247.525C53.2778 245.019 55.2208 242.338 57.0742 239.41C59.601 235.433 61.4826 231.38 62.1706 227.726L62.168 227.748C62.424 224.103 62.6384 221.056 62.792 218.87C62.8758 217.833 62.943 217.003 62.993 216.388C63.0192 216.127 63.041 215.913 63.0589 215.735C63.0787 215.586 63.0922 215.511 63.1005 215.511Z" fill="#263238"/>
<path d="M57.5651 238.85C57.5651 238.85 61.5024 229.374 56.5501 223.165C56.376 222.948 56.0291 223.012 55.9549 223.28C55.5165 224.864 54.705 229.737 57.5651 238.85Z" fill="#00A0E2"/>
<path d="M56.8489 226.469C56.9014 226.463 57.0223 227.148 57.1612 228.262C57.3007 229.376 57.4563 230.918 57.5785 232.626C57.702 234.334 57.759 235.885 57.7583 237.009C57.7558 238.133 57.6982 238.828 57.6483 238.827C57.5919 238.827 57.5542 238.134 57.487 237.017C57.4031 235.76 57.3046 234.284 57.1951 232.653C57.0812 231.022 56.9782 229.545 56.8905 228.288C56.8207 227.168 56.7958 226.475 56.8489 226.469Z" fill="#263238"/>
<g opacity="0.3">
<path d="M57.5651 238.85C57.5651 238.85 61.5024 229.374 56.5501 223.165C56.376 222.948 56.0291 223.012 55.9549 223.28C55.5165 224.864 54.705 229.737 57.5651 238.85Z" fill="black"/>
</g>
<path d="M45.3715 261.687C45.3715 261.687 48.5273 251.922 43.0873 246.136C42.896 245.932 42.5561 246.024 42.5036 246.298C42.1952 247.912 41.7817 252.836 45.3715 261.687Z" fill="#00A0E2"/>
<path d="M43.6524 249.404C43.7042 249.395 43.8802 250.067 44.1087 251.166C44.3378 252.265 44.6181 253.789 44.8786 255.481C45.1404 257.174 45.3227 258.715 45.4136 259.835C45.5026 260.956 45.5007 261.653 45.4514 261.656C45.3951 261.66 45.3016 260.973 45.1442 259.865C44.9586 258.619 44.7404 257.156 44.4997 255.539C44.254 253.922 44.0312 252.459 43.8418 251.212C43.6812 250.104 43.6005 249.414 43.6524 249.404Z" fill="#263238"/>
<g opacity="0.3">
<path d="M45.3715 261.687C45.3715 261.687 48.5273 251.922 43.0873 246.136C42.896 245.932 42.5561 246.024 42.5036 246.298C42.1952 247.912 41.7817 252.836 45.3715 261.687Z" fill="black"/>
</g>
<path d="M62.5781 227.268C62.5781 227.268 70.9852 221.383 70.1365 213.486C70.1064 213.209 69.7794 213.077 69.5727 213.263C68.3528 214.366 65.0536 218.043 62.5781 227.268Z" fill="#00A0E2"/>
<g opacity="0.3">
<path d="M62.5781 227.268C62.5781 227.268 70.9852 221.383 70.1365 213.486C70.1064 213.209 69.7794 213.077 69.5727 213.263C68.3528 214.366 65.0536 218.043 62.5781 227.268Z" fill="black"/>
</g>
<path d="M68.6158 216.434C68.6632 216.458 68.3976 217.1 67.9176 218.115C67.4376 219.129 66.7419 220.514 65.9285 222.021C65.1163 223.529 64.3323 224.869 63.7288 225.817C63.124 226.764 62.7022 227.319 62.6606 227.292C62.6133 227.261 62.9525 226.657 63.4952 225.678C64.0987 224.572 64.8072 223.274 65.5906 221.839C66.3694 220.402 67.0747 219.1 67.6757 217.991C68.2171 217.01 68.5685 216.411 68.6158 216.434Z" fill="#263238"/>
<path d="M48.7617 252.006C48.7617 252.006 58.9012 250.425 61.6174 242.962C61.7128 242.701 61.4772 242.438 61.2091 242.514C59.6289 242.966 55.0472 244.814 48.7617 252.006Z" fill="#00A0E2"/>
<g opacity="0.3">
<path d="M48.7617 252.006C48.7617 252.006 58.9012 250.425 61.6174 242.962C61.7128 242.701 61.4772 242.438 61.2091 242.514C59.6289 242.966 55.0472 244.814 48.7617 252.006Z" fill="black"/>
</g>
<path d="M58.9539 244.94C58.9859 244.982 58.4643 245.441 57.5869 246.141C56.7094 246.84 55.4749 247.777 54.0809 248.772C52.6877 249.768 51.3936 250.625 50.4342 251.211C49.4736 251.795 48.8509 252.108 48.8253 252.065C48.7965 252.016 49.3673 251.623 50.2857 250.984C51.3149 250.257 52.5225 249.403 53.8576 248.46C55.1901 247.512 56.3965 246.654 57.4237 245.924C58.3421 245.281 58.9213 244.897 58.9539 244.94Z" fill="#263238"/>
<path d="M39.0903 270.666L36.1328 290.573H54.5648L52.1751 270.666H39.0903Z" fill="#455A64"/>
<path d="M52.9122 276.835C52.9122 276.941 49.5842 277.027 45.4798 277.027C41.3742 277.027 38.0469 276.941 38.0469 276.835C38.0469 276.728 41.3742 276.643 45.4798 276.643C49.5842 276.643 52.9122 276.729 52.9122 276.835Z" fill="#263238"/>
<path d="M53.2787 278.419C53.2787 278.525 49.8413 278.611 45.6026 278.611C41.3619 278.611 37.9258 278.525 37.9258 278.419C37.9258 278.312 41.3619 278.227 45.6026 278.227C49.8413 278.227 53.2787 278.313 53.2787 278.419Z" fill="#263238"/>
</svg>
